G04*
G04 #@! TF.GenerationSoftware,Altium Limited,Altium Designer,20.0.13 (296)*
G04*
G04 Layer_Color=32896*
%FSLAX44Y44*%
%MOMM*%
G71*
G01*
G75*
%ADD10C,0.2500*%
%ADD13C,0.2000*%
%ADD14C,0.2540*%
%ADD15C,0.1500*%
%ADD16C,0.1000*%
%ADD46C,0.6000*%
%ADD70C,0.1270*%
G36*
X934916Y711910D02*
Y711841D01*
X935599Y708355D01*
Y708219D01*
X935668Y708150D01*
X935736D01*
X938060Y707194D01*
X938334D01*
X941204Y709244D01*
X941341D01*
X941409Y709176D01*
X943938Y706783D01*
Y706715D01*
Y706647D01*
Y706578D01*
Y706510D01*
X941956Y703639D01*
Y703571D01*
Y703503D01*
Y703434D01*
Y703366D01*
X942913Y700974D01*
X943118Y700837D01*
X943186D01*
X946467Y700222D01*
X946604D01*
X946672Y700153D01*
Y700085D01*
Y696599D01*
X946604Y696531D01*
X946536Y696462D01*
X946467D01*
X943255Y695779D01*
X943118Y695711D01*
Y695642D01*
X942024Y693045D01*
Y692976D01*
Y692908D01*
Y692840D01*
Y692771D01*
X943938Y690106D01*
Y690037D01*
Y689969D01*
Y689901D01*
X941409Y687440D01*
X941341Y687372D01*
X941273D01*
X941204Y687440D01*
X938539Y689217D01*
X938334D01*
X937171Y688602D01*
X936966Y688670D01*
X936898D01*
X934506Y694548D01*
Y694754D01*
X934574Y694822D01*
X934916Y694959D01*
X934984D01*
X935053Y695027D01*
Y695095D01*
X935668Y695574D01*
X936078Y696052D01*
X936420Y696599D01*
X936625Y697077D01*
X936761Y697556D01*
X936830Y697898D01*
Y698171D01*
Y698240D01*
X936761Y698855D01*
X936625Y699333D01*
X936488Y699812D01*
X936283Y700222D01*
X936078Y700563D01*
X935873Y700769D01*
X935805Y700905D01*
X935736Y700974D01*
X935258Y701384D01*
X934847Y701657D01*
X934369Y701862D01*
X933959Y701999D01*
X933549Y702067D01*
X933276Y702135D01*
X933002D01*
X932387Y702067D01*
X931908Y701930D01*
X931430Y701794D01*
X931020Y701589D01*
X930678Y701315D01*
X930473Y701179D01*
X930336Y701042D01*
X930268Y700974D01*
X929926Y700563D01*
X929653Y700085D01*
X929448Y699606D01*
X929311Y699196D01*
X929243Y698786D01*
X929174Y698513D01*
Y698308D01*
Y698240D01*
X929243Y697488D01*
X929448Y696872D01*
X929721Y696326D01*
X930063Y695916D01*
X930405Y695574D01*
X930678Y695300D01*
X930883Y695164D01*
X930952Y695095D01*
X931020Y695027D01*
X931088Y694959D01*
X931430Y694822D01*
X931498Y694617D01*
Y694548D01*
X929038Y688670D01*
X928969Y688602D01*
X928833D01*
X927739Y689217D01*
X927466D01*
X924800Y687440D01*
X924732Y687372D01*
X924663D01*
X924595Y687440D01*
X922066Y689901D01*
Y689969D01*
Y690106D01*
X923980Y692771D01*
Y692840D01*
Y692908D01*
Y692976D01*
Y693045D01*
X922954Y695642D01*
X922886Y695711D01*
X922818Y695779D01*
X922749D01*
X919537Y696462D01*
X919400D01*
X919332Y696531D01*
Y696599D01*
Y700085D01*
Y700153D01*
X919400Y700222D01*
X919537D01*
X922818Y700837D01*
X922954D01*
X923023Y700905D01*
Y700974D01*
X924116Y703366D01*
Y703434D01*
Y703503D01*
Y703639D01*
X922066Y706510D01*
Y706578D01*
Y706647D01*
Y706715D01*
Y706783D01*
X924595Y709176D01*
X924732Y709244D01*
X924800D01*
X927739Y707194D01*
X927944D01*
X930268Y708150D01*
X930336Y708219D01*
X930405Y708287D01*
Y708355D01*
X931088Y711841D01*
Y711910D01*
X931157Y711978D01*
X934847D01*
X934916Y711910D01*
D02*
G37*
G36*
X946877Y675137D02*
X946262D01*
Y677256D01*
X946194Y677529D01*
X946125Y677734D01*
X945852Y678008D01*
X945647Y678076D01*
X945237D01*
X945100Y677939D01*
X944827Y677666D01*
X944759Y677392D01*
Y677324D01*
Y677256D01*
Y675137D01*
X944007D01*
Y677529D01*
X944075Y677939D01*
X944212Y678213D01*
X944417Y678486D01*
X944622Y678623D01*
X945032Y678759D01*
X945237D01*
X945715Y678691D01*
X945989Y678554D01*
X946194Y678418D01*
X946262Y678349D01*
Y681220D01*
X945852Y681015D01*
X945510Y680878D01*
X945305Y680810D01*
X945237D01*
X944895Y680878D01*
X944553Y681083D01*
X944280Y681220D01*
X944212Y681288D01*
X944075Y681698D01*
X944007Y682177D01*
Y682587D01*
Y682655D01*
Y682724D01*
Y683407D01*
X944075Y683817D01*
X944143Y684091D01*
X944212Y684159D01*
X944553Y684433D01*
X944895Y684501D01*
X945169Y684569D01*
X945237D01*
X945647Y684501D01*
X945920Y684364D01*
X946194Y684227D01*
X946262Y684159D01*
Y684569D01*
X946877D01*
Y675137D01*
D02*
G37*
G36*
X939905Y680878D02*
X939154D01*
Y683065D01*
X939085Y683339D01*
X939017Y683544D01*
X938744Y683817D01*
X938539Y683886D01*
X938128D01*
X937992Y683749D01*
X937718Y683476D01*
X937650Y683202D01*
Y683134D01*
Y683065D01*
Y680878D01*
X936898D01*
Y683270D01*
X936966Y683681D01*
X937103Y684022D01*
X937308Y684227D01*
X937513Y684433D01*
X937923Y684569D01*
X938128D01*
X938607Y684501D01*
X938880Y684364D01*
X939085Y684227D01*
X939154Y684159D01*
Y684569D01*
X939905D01*
Y680878D01*
D02*
G37*
G36*
X923980D02*
X923228D01*
Y683065D01*
X923159Y683339D01*
X923091Y683544D01*
X922818Y683817D01*
X922613Y683886D01*
X922476D01*
X922339Y683817D01*
X922203Y683749D01*
X922134Y683681D01*
X922066Y683612D01*
X921519Y684296D01*
X921792Y684433D01*
X922066Y684569D01*
X922271D01*
X922681Y684501D01*
X923023Y684364D01*
X923159Y684227D01*
X923228Y684159D01*
Y684569D01*
X923980D01*
Y680878D01*
D02*
G37*
G36*
X927739Y682040D02*
X927671Y681630D01*
X927534Y681357D01*
X927329Y681083D01*
X927056Y680947D01*
X926645Y680810D01*
X926440D01*
X926099Y680878D01*
X925825Y681015D01*
X925620Y681152D01*
X925552Y681220D01*
Y680878D01*
X924800D01*
Y684569D01*
X925552D01*
Y682382D01*
Y682109D01*
X925688Y681904D01*
X925893Y681698D01*
X926099Y681562D01*
X926235D01*
X926509Y681630D01*
X926645Y681698D01*
X926919Y681972D01*
X926987Y682245D01*
Y682382D01*
Y684569D01*
X927739D01*
Y682040D01*
D02*
G37*
G36*
X920494Y684501D02*
X920904Y684296D01*
X921177Y683954D01*
X921382Y683681D01*
X921519Y683339D01*
X921587Y682997D01*
Y682792D01*
Y682724D01*
X921519Y682109D01*
X921314Y681630D01*
X921041Y681288D01*
X920767Y681083D01*
X920494Y680947D01*
X920220Y680810D01*
X919947D01*
X919400Y680947D01*
X918990Y681152D01*
X918717Y681357D01*
X918648Y681493D01*
X919195Y681972D01*
X919469Y681767D01*
X919673Y681630D01*
X919879Y681562D01*
X919947D01*
X920220Y681630D01*
X920425Y681767D01*
X920699Y682177D01*
X920835Y682519D01*
Y682655D01*
Y682724D01*
X920767Y683134D01*
X920699Y683407D01*
X920562Y683612D01*
X920357Y683749D01*
X920084Y683886D01*
X919947D01*
X919605Y683817D01*
X919400Y683681D01*
X919263Y683544D01*
X919195Y683476D01*
X918648Y683954D01*
X919058Y684296D01*
X919469Y684501D01*
X919810Y684569D01*
X919947D01*
X920494Y684501D01*
D02*
G37*
G36*
X942503D02*
X942913Y684296D01*
X943186Y683954D01*
X943323Y683681D01*
X943460Y683339D01*
X943528Y682997D01*
Y682792D01*
Y682724D01*
X943460Y682109D01*
X943255Y681630D01*
X942981Y681288D01*
X942708Y681083D01*
X942434Y680947D01*
X942161Y680810D01*
X941888D01*
X941341Y680878D01*
X940931Y681152D01*
X940657Y681357D01*
X940521Y681425D01*
X941136Y681904D01*
X941409Y681698D01*
X941614Y681562D01*
X941888Y681493D01*
X941956D01*
X942230Y681562D01*
X942434Y681630D01*
X942640Y681972D01*
X942776Y682245D01*
Y682314D01*
Y682382D01*
X940452D01*
Y683065D01*
X940521Y683544D01*
X940726Y683954D01*
X940931Y684227D01*
X941204Y684364D01*
X941546Y684501D01*
X941751Y684569D01*
X942024D01*
X942503Y684501D01*
D02*
G37*
G36*
X917418D02*
X917828Y684296D01*
X918101Y683954D01*
X918238Y683681D01*
X918375Y683339D01*
X918443Y682997D01*
Y682792D01*
Y682724D01*
X918375Y682109D01*
X918170Y681630D01*
X917896Y681288D01*
X917623Y681083D01*
X917350Y680947D01*
X917076Y680810D01*
X916803D01*
X916256Y680878D01*
X915846Y681152D01*
X915572Y681357D01*
X915504Y681425D01*
X916051Y681904D01*
X916256Y681698D01*
X916529Y681562D01*
X916734Y681493D01*
X916803D01*
X917076Y681562D01*
X917281Y681630D01*
X917555Y681972D01*
X917691Y682245D01*
Y682314D01*
Y682382D01*
X915367D01*
Y683065D01*
X915436Y683544D01*
X915641Y683954D01*
X915846Y684227D01*
X916119Y684364D01*
X916461Y684501D01*
X916666Y684569D01*
X916939D01*
X917418Y684501D01*
D02*
G37*
G36*
X949543D02*
X949953Y684364D01*
X950158Y684227D01*
X950227Y684159D01*
X950363Y683681D01*
X950432Y683270D01*
X950500Y682860D01*
Y682792D01*
Y682724D01*
X950432Y682109D01*
X950363Y681698D01*
X950295Y681357D01*
X950227Y681288D01*
X949817Y681015D01*
X949475Y680878D01*
X949201Y680810D01*
X949065D01*
X948586Y680878D01*
X948244Y681083D01*
X948039Y681220D01*
X947971Y681288D01*
X947698Y681698D01*
X947629Y682177D01*
X947561Y682587D01*
Y682655D01*
Y682724D01*
X947629Y683407D01*
X947766Y683817D01*
X947903Y684091D01*
X947971Y684159D01*
X948244Y684433D01*
X948586Y684501D01*
X948928Y684569D01*
X949065D01*
X949543Y684501D01*
D02*
G37*
G36*
X933754D02*
X934096Y684433D01*
X934301Y684227D01*
X934506Y684022D01*
X934642Y683681D01*
Y683544D01*
Y683476D01*
X934574Y683134D01*
X934506Y682929D01*
X934164Y682587D01*
X933822Y682450D01*
X933754Y682382D01*
X933002D01*
X932729Y682245D01*
X932592Y682109D01*
X932524Y682040D01*
Y681972D01*
Y681835D01*
X932660Y681698D01*
X932865Y681562D01*
X933139Y681493D01*
X933276D01*
X933686Y681562D01*
X934096Y681767D01*
X934369Y681904D01*
X934437Y681972D01*
X934916Y681493D01*
X934369Y681083D01*
X933891Y680878D01*
X933481Y680810D01*
X933344D01*
X932797Y680878D01*
X932455Y681015D01*
X932182Y681152D01*
X931977Y681425D01*
X931840Y681630D01*
X931772Y681767D01*
Y681904D01*
Y681972D01*
X931840Y682314D01*
X931908Y682519D01*
X932318Y682860D01*
X932660Y683065D01*
X932865D01*
X933481Y683134D01*
X933822Y683202D01*
X933959Y683339D01*
X934027Y683407D01*
Y683476D01*
X933891Y683749D01*
X933686Y683817D01*
X933481Y683886D01*
X933344D01*
X933070Y683817D01*
X932729Y683749D01*
X932455Y683612D01*
X932318Y683544D01*
X931908Y684022D01*
X932387Y684364D01*
X932797Y684501D01*
X933207Y684569D01*
X933344D01*
X933754Y684501D01*
D02*
G37*
G36*
X930336D02*
X930746Y684364D01*
X930952Y684227D01*
X931020Y684159D01*
X931225Y683749D01*
X931293Y683270D01*
X931362Y682860D01*
Y682792D01*
Y682724D01*
X931293Y682109D01*
X931157Y681630D01*
X931088Y681357D01*
X931020Y681288D01*
X930610Y681015D01*
X930268Y680878D01*
X929995Y680810D01*
X929858D01*
X929379Y680878D01*
X929038Y681083D01*
X928833Y681220D01*
X928764Y681288D01*
X928491Y681698D01*
X928422Y682177D01*
X928354Y682587D01*
Y682655D01*
Y682724D01*
X928422Y683407D01*
X928559Y683817D01*
X928696Y684091D01*
X928764Y684159D01*
X929106Y684433D01*
X929448Y684501D01*
X929721Y684569D01*
X929858D01*
X930336Y684501D01*
D02*
G37*
G36*
X939700Y675137D02*
X938949D01*
Y677256D01*
Y677529D01*
X938880Y677734D01*
X938607Y678008D01*
X938402Y678076D01*
X938128D01*
X937923Y678008D01*
X937855Y677939D01*
X937787Y677871D01*
X937240Y678486D01*
X937513Y678623D01*
X937787Y678759D01*
X938060D01*
X938470Y678691D01*
X938744Y678554D01*
X938880Y678418D01*
X938949Y678349D01*
Y678759D01*
X939700D01*
Y675137D01*
D02*
G37*
G36*
X924937D02*
X924185D01*
Y677256D01*
Y677529D01*
X924048Y677734D01*
X923843Y678008D01*
X923638Y678076D01*
X923296D01*
X923159Y678008D01*
X923023Y677939D01*
Y677871D01*
X922408Y678486D01*
X922681Y678623D01*
X922954Y678759D01*
X923159D01*
X923638Y678691D01*
X923911Y678554D01*
X924116Y678418D01*
X924185Y678349D01*
Y678759D01*
X924937D01*
Y675137D01*
D02*
G37*
G36*
X942640Y678691D02*
X942981Y678554D01*
X943255Y678349D01*
X943323Y678281D01*
X942776Y677871D01*
X942571Y678008D01*
X942298Y678076D01*
X941751D01*
X941614Y678008D01*
X941341Y677871D01*
X941273Y677666D01*
Y677597D01*
Y677256D01*
X942298D01*
X942708Y677187D01*
X942981Y677119D01*
X943255Y676914D01*
X943391Y676709D01*
X943528Y676367D01*
Y676230D01*
Y676162D01*
X943460Y675752D01*
X943323Y675479D01*
X943118Y675273D01*
X942845Y675137D01*
X942366Y675000D01*
X942161D01*
X941751Y675068D01*
X941478Y675205D01*
X941341Y675342D01*
X941273Y675410D01*
Y675137D01*
X940521D01*
Y677597D01*
X940589Y678008D01*
X940794Y678281D01*
X940999Y678486D01*
X941273Y678623D01*
X941614Y678691D01*
X941819Y678759D01*
X942093D01*
X942640Y678691D01*
D02*
G37*
G36*
X927807D02*
X928149Y678554D01*
X928354Y678349D01*
X928422Y678281D01*
X927876Y677871D01*
X927739Y678008D01*
X927466Y678076D01*
X926919D01*
X926782Y678008D01*
X926509Y677871D01*
X926440Y677666D01*
Y677597D01*
Y677256D01*
X927466D01*
X927876Y677187D01*
X928149Y677119D01*
X928422Y676914D01*
X928559Y676709D01*
X928696Y676367D01*
Y676230D01*
Y676162D01*
X928628Y675752D01*
X928491Y675479D01*
X928286Y675273D01*
X928012Y675137D01*
X927602Y675000D01*
X927397D01*
X926987Y675068D01*
X926645Y675205D01*
X926509Y675342D01*
X926440Y675410D01*
Y675137D01*
X925757D01*
Y677597D01*
X925825Y678008D01*
X925962Y678281D01*
X926235Y678486D01*
X926440Y678623D01*
X926987Y678759D01*
X927192D01*
X927807Y678691D01*
D02*
G37*
G36*
X932729Y675137D02*
X932113D01*
X931362Y677666D01*
X930541Y675137D01*
X929858D01*
X928696Y678759D01*
X929516D01*
X930200Y676162D01*
X931020Y678759D01*
X931567D01*
X932455Y676162D01*
X933139Y678759D01*
X933891D01*
X932729Y675137D01*
D02*
G37*
G36*
X921382Y678691D02*
X921792Y678486D01*
X922066Y678144D01*
X922203Y677871D01*
X922339Y677529D01*
X922408Y677187D01*
Y676982D01*
Y676914D01*
X922339Y676299D01*
X922134Y675820D01*
X921861Y675479D01*
X921587Y675273D01*
X921314Y675137D01*
X921041Y675000D01*
X920767D01*
X920220Y675068D01*
X919810Y675342D01*
X919537Y675547D01*
X919469Y675615D01*
X920015Y676094D01*
X920289Y675889D01*
X920494Y675752D01*
X920767Y675684D01*
X920835D01*
X921109Y675752D01*
X921314Y675820D01*
X921519Y676162D01*
X921656Y676435D01*
Y676504D01*
Y676572D01*
X919332D01*
Y677256D01*
X919400Y677734D01*
X919605Y678144D01*
X919810Y678418D01*
X920084Y678554D01*
X920425Y678691D01*
X920630Y678759D01*
X920904D01*
X921382Y678691D01*
D02*
G37*
G36*
X935053Y678349D02*
X935394Y678623D01*
X935668Y678691D01*
X935941Y678759D01*
X936010D01*
X936420Y678691D01*
X936761Y678554D01*
X936898Y678418D01*
X936966Y678349D01*
X937035Y678213D01*
X937103Y678008D01*
X937171Y677529D01*
X937240Y677119D01*
Y676982D01*
Y676914D01*
Y676504D01*
X937171Y676230D01*
Y675957D01*
X937103Y675820D01*
X937035Y675615D01*
X936966Y675547D01*
X936693Y675205D01*
X936351Y675068D01*
X936078Y675000D01*
X936010D01*
X935599Y675068D01*
X935326Y675205D01*
X935121Y675342D01*
X935053Y675410D01*
Y675137D01*
X934301D01*
Y680263D01*
X935053D01*
Y678349D01*
D02*
G37*
G36*
X945500Y669395D02*
X939215Y662836D01*
X939058Y661079D01*
X938668Y656824D01*
X938356Y653740D01*
X945071Y646830D01*
X944602Y646400D01*
X938278Y652881D01*
X937926Y648899D01*
X937731D01*
Y647376D01*
X936326D01*
Y648899D01*
X931953D01*
X931797Y648587D01*
X931602Y648313D01*
X931290Y647962D01*
X930860Y647689D01*
X930392Y647533D01*
X929962Y647494D01*
X929494Y647533D01*
X929142Y647611D01*
X928791Y647767D01*
X928440Y647962D01*
X928205Y648235D01*
X927932Y648587D01*
X927737Y649016D01*
X927620Y649406D01*
X927581Y649719D01*
X927620Y650109D01*
X927698Y650422D01*
X927776Y650695D01*
X927971Y651007D01*
X928166Y651241D01*
X928401Y651476D01*
X928674Y651671D01*
X928947Y651827D01*
X928908Y652139D01*
X923364Y646400D01*
X922896Y646869D01*
X928869Y652998D01*
X928362Y658386D01*
X928049Y662251D01*
X926253D01*
Y664749D01*
X926722D01*
X922232Y669395D01*
X922701Y669824D01*
X926917Y665452D01*
Y665764D01*
X926839Y665842D01*
X926722Y665920D01*
X926605Y666037D01*
X926488Y666193D01*
X926449Y666311D01*
X926410Y666467D01*
X926370Y666662D01*
X926410Y666896D01*
X926449Y667052D01*
X926644Y667287D01*
X926800Y667482D01*
X927073Y667560D01*
X927307Y667599D01*
X927581D01*
X927776Y667482D01*
X927971Y667365D01*
X928088Y667248D01*
X928244Y667404D01*
X928518Y667599D01*
X928869Y667755D01*
X929337Y667950D01*
X929845Y668107D01*
X930392Y668224D01*
X930938Y668302D01*
X931368Y668380D01*
Y668926D01*
X934920D01*
Y668419D01*
X935193D01*
X935662Y668380D01*
X936130Y668302D01*
X936599Y668224D01*
Y668536D01*
X938160D01*
Y667794D01*
X938317Y667716D01*
X938590Y667599D01*
X938824Y667443D01*
X939058Y667287D01*
X939293Y667092D01*
X939410Y666974D01*
X939527Y666857D01*
X939566Y666701D01*
Y666467D01*
X940464D01*
Y665296D01*
X939449D01*
X939293Y663851D01*
X945071Y669824D01*
X945500Y669395D01*
D02*
G37*
G36*
X944173Y641286D02*
Y641208D01*
Y640935D01*
Y640622D01*
Y640544D01*
Y640505D01*
Y639920D01*
Y639334D01*
Y639100D01*
Y638905D01*
Y638788D01*
Y638749D01*
Y638085D01*
Y637812D01*
Y637538D01*
Y637343D01*
Y637187D01*
Y637070D01*
Y637031D01*
Y636758D01*
Y636562D01*
Y636445D01*
Y636367D01*
Y636250D01*
X923911D01*
Y636289D01*
Y636367D01*
Y636640D01*
Y636914D01*
Y636992D01*
Y637031D01*
Y637616D01*
Y638202D01*
Y638397D01*
Y638592D01*
Y638709D01*
Y638749D01*
Y639451D01*
Y639725D01*
Y639998D01*
Y640193D01*
Y640388D01*
Y640466D01*
Y640505D01*
Y640779D01*
Y640974D01*
Y641130D01*
Y641208D01*
Y641325D01*
X944173D01*
Y641286D01*
D02*
G37*
G36*
X767984Y621986D02*
X768687Y621811D01*
X768980Y621693D01*
X769155Y621635D01*
X769273Y621518D01*
X769331D01*
X769565Y621401D01*
X769683Y621342D01*
X770210Y620873D01*
X770561Y620405D01*
X770854Y620053D01*
X770913Y619995D01*
Y619936D01*
X787664Y590884D01*
X787723D01*
Y590826D01*
X787840Y590592D01*
X787957Y590416D01*
X788016Y590299D01*
Y590240D01*
X788074Y590123D01*
X788133Y589889D01*
X788191Y589713D01*
Y589654D01*
X788250Y589069D01*
Y588483D01*
X788133Y588014D01*
X788016Y587546D01*
X787899Y587194D01*
X787781Y586902D01*
X787723Y586726D01*
X787664Y586667D01*
Y586609D01*
X787430Y586257D01*
X787371Y586140D01*
X787313Y586082D01*
X787020Y585789D01*
X786961Y585671D01*
X786903Y585613D01*
X786376Y585203D01*
X785907Y584969D01*
X785380Y584734D01*
X784911Y584617D01*
X784501Y584559D01*
X784209Y584500D01*
X750061D01*
X749885Y584559D01*
X749534D01*
X749358Y584617D01*
X749182Y584676D01*
X749124D01*
X748538Y584910D01*
X748069Y585203D01*
X747659Y585554D01*
X747308Y585847D01*
X747074Y586199D01*
X746898Y586433D01*
X746781Y586609D01*
X746722Y586667D01*
X746664D01*
X746546Y586902D01*
X746488Y587077D01*
X746429Y587194D01*
Y587253D01*
X746371Y587487D01*
X746312Y587663D01*
X746254Y587780D01*
Y587839D01*
X746195Y588483D01*
Y589069D01*
X746254Y589596D01*
X746371Y590006D01*
X746488Y590416D01*
X746605Y590709D01*
X746664Y590884D01*
X746722Y590943D01*
X763474Y619995D01*
X763767Y620346D01*
X763825Y620463D01*
X763884Y620522D01*
X764001Y620698D01*
X764118Y620815D01*
X764235Y620932D01*
X764294Y620991D01*
X764762Y621342D01*
X765231Y621635D01*
X765758Y621811D01*
X766168Y621986D01*
X766578Y622045D01*
X766871Y622104D01*
X767164D01*
X767984Y621986D01*
D02*
G37*
%LPC*%
G36*
X945647Y683886D02*
X945510D01*
X945237Y683817D01*
X945100Y683681D01*
X944827Y683339D01*
X944759Y682929D01*
Y682792D01*
Y682724D01*
Y682314D01*
X944895Y682040D01*
X944964Y681835D01*
X945100Y681698D01*
X945374Y681562D01*
X945510D01*
X945784Y681630D01*
X945920Y681767D01*
X946194Y682177D01*
X946262Y682519D01*
Y682655D01*
Y682724D01*
X946194Y683134D01*
X946125Y683407D01*
X945989Y683612D01*
X945852Y683749D01*
X945647Y683886D01*
D02*
G37*
G36*
X942161D02*
X941819D01*
X941614Y683749D01*
X941341Y683476D01*
X941204Y683202D01*
Y683134D01*
Y683065D01*
X942776D01*
X942708Y683339D01*
X942640Y683544D01*
X942366Y683817D01*
X942161Y683886D01*
D02*
G37*
G36*
X917076D02*
X916734D01*
X916529Y683749D01*
X916256Y683476D01*
X916119Y683202D01*
Y683134D01*
Y683065D01*
X917691D01*
X917623Y683339D01*
X917555Y683544D01*
X917281Y683817D01*
X917076Y683886D01*
D02*
G37*
G36*
X949133D02*
X949065D01*
X948791Y683817D01*
X948586Y683749D01*
X948518Y683612D01*
X948449Y683544D01*
X948381Y683339D01*
X948313Y683065D01*
Y682860D01*
Y682724D01*
Y682314D01*
X948381Y682040D01*
X948449Y681904D01*
Y681835D01*
X948586Y681698D01*
X948791Y681630D01*
X948996Y681562D01*
X949065D01*
X949338Y681630D01*
X949543Y681698D01*
X949611Y681767D01*
Y681835D01*
X949748Y682109D01*
X949817Y682382D01*
X949885Y682655D01*
Y682724D01*
X949817Y683065D01*
X949748Y683339D01*
X949680Y683476D01*
X949611Y683544D01*
X949475Y683749D01*
X949270Y683817D01*
X949133Y683886D01*
D02*
G37*
G36*
X929926D02*
X929858D01*
X929585Y683817D01*
X929448Y683749D01*
X929311Y683612D01*
Y683544D01*
X929174Y683339D01*
X929106Y683065D01*
Y682860D01*
Y682724D01*
Y682314D01*
X929174Y682040D01*
X929243Y681904D01*
X929311Y681835D01*
X929448Y681698D01*
X929653Y681630D01*
X929790Y681562D01*
X929858D01*
X930131Y681630D01*
X930336Y681698D01*
X930405Y681767D01*
Y681835D01*
X930541Y682040D01*
X930610Y682382D01*
Y682587D01*
Y682724D01*
X930541Y683134D01*
X930473Y683407D01*
X930405Y683544D01*
X930268Y683749D01*
X930063Y683817D01*
X929926Y683886D01*
D02*
G37*
G36*
X942230Y676572D02*
X941273D01*
Y676367D01*
Y676162D01*
X941409Y675957D01*
X941683Y675752D01*
X941956Y675684D01*
X942093D01*
X942503Y675752D01*
X942708Y675957D01*
X942776Y676094D01*
Y676162D01*
X942708Y676435D01*
X942434Y676504D01*
X942230Y676572D01*
D02*
G37*
G36*
X927397D02*
X926440D01*
Y676367D01*
X926509Y676162D01*
X926577Y675957D01*
X926850Y675752D01*
X927192Y675684D01*
X927329D01*
X927671Y675752D01*
X927876Y675957D01*
X927944Y676094D01*
Y676162D01*
X927876Y676435D01*
X927602Y676504D01*
X927397Y676572D01*
D02*
G37*
G36*
X921041Y678076D02*
X920699D01*
X920494Y677939D01*
X920220Y677666D01*
X920084Y677392D01*
Y677324D01*
Y677256D01*
X921656D01*
X921587Y677529D01*
X921519Y677734D01*
X921246Y678008D01*
X921041Y678076D01*
D02*
G37*
G36*
X935873D02*
X935736D01*
X935531Y678008D01*
X935326Y677871D01*
X935121Y677529D01*
X935053Y677119D01*
Y676982D01*
Y676914D01*
Y676504D01*
X935189Y676230D01*
X935258Y676025D01*
X935394Y675889D01*
X935599Y675752D01*
X935736D01*
X936010Y675820D01*
X936146Y675957D01*
X936420Y676367D01*
X936488Y676709D01*
Y676845D01*
Y676914D01*
X936420Y677324D01*
X936351Y677597D01*
X936215Y677802D01*
X936078Y677939D01*
X935873Y678076D01*
D02*
G37*
G36*
X934257Y668263D02*
X931992D01*
Y667911D01*
X934257D01*
Y668263D01*
D02*
G37*
G36*
X934920Y667755D02*
Y667248D01*
X931368D01*
Y667677D01*
X930626Y667560D01*
X929962Y667404D01*
X929416Y667248D01*
X928986Y667052D01*
X928596Y666857D01*
X928362Y666623D01*
Y666467D01*
X936599D01*
Y667560D01*
X936091Y667638D01*
X935545Y667716D01*
X934920Y667755D01*
D02*
G37*
G36*
X937497Y667911D02*
X937263D01*
Y667052D01*
X937497D01*
Y667911D01*
D02*
G37*
G36*
X938160Y667092D02*
Y666467D01*
X938902D01*
X938941Y666545D01*
X938746Y666740D01*
X938512Y666896D01*
X938160Y667092D01*
D02*
G37*
G36*
X927385Y666974D02*
X927346D01*
X927151Y666935D01*
X927073Y666818D01*
X927034Y666701D01*
Y666662D01*
X927073Y666467D01*
X927190Y666350D01*
X927307Y666311D01*
X927346D01*
X927542Y666350D01*
X927620Y666506D01*
X927659Y666623D01*
Y666662D01*
X927620Y666857D01*
X927503Y666935D01*
X927385Y666974D01*
D02*
G37*
G36*
X928127Y664124D02*
X926917D01*
Y662914D01*
X928127D01*
Y664124D01*
D02*
G37*
G36*
X934335Y661353D02*
X931016D01*
Y661118D01*
X934335D01*
Y661353D01*
D02*
G37*
G36*
X938824Y665296D02*
X928440D01*
X928479Y664749D01*
X928791D01*
Y663578D01*
X930313Y661977D01*
X934998D01*
Y660494D01*
X931797D01*
X933905Y658269D01*
X938629Y663148D01*
X938824Y665296D01*
D02*
G37*
G36*
X938512Y662133D02*
X934374Y657800D01*
X937770Y654325D01*
X938512Y662133D01*
D02*
G37*
G36*
X928791Y662641D02*
Y662251D01*
X928713D01*
X929455Y653623D01*
X933476Y657800D01*
X930860Y660494D01*
X930313D01*
Y661040D01*
X928791Y662641D01*
D02*
G37*
G36*
X933905Y657371D02*
X929494Y652764D01*
X929572Y651983D01*
X929884Y652022D01*
X930235Y651983D01*
X930626Y651866D01*
X931016Y651671D01*
X931329Y651476D01*
X931602Y651202D01*
X931836Y650851D01*
X932031Y650422D01*
X932148Y649914D01*
X932109Y649563D01*
X937341D01*
X937692Y653467D01*
X933905Y657371D01*
D02*
G37*
G36*
X930040Y650890D02*
X929884D01*
X929494Y650851D01*
X929220Y650734D01*
X929025Y650539D01*
X928908Y650343D01*
X928791Y650109D01*
X928752Y649953D01*
Y649797D01*
Y649758D01*
X928791Y649367D01*
X928908Y649094D01*
X929103Y648899D01*
X929298Y648782D01*
X929533Y648704D01*
X929689Y648626D01*
X929884D01*
X930235Y648665D01*
X930509Y648821D01*
X930704Y648977D01*
X930821Y649211D01*
X930899Y649406D01*
X930977Y649602D01*
Y649719D01*
Y649758D01*
X930938Y650148D01*
X930821Y650422D01*
X930626Y650617D01*
X930431Y650734D01*
X930235Y650851D01*
X930040Y650890D01*
D02*
G37*
G36*
X937067Y648899D02*
X936950D01*
Y648001D01*
X937067D01*
Y648899D01*
D02*
G37*
%LPD*%
G36*
X930118Y650461D02*
X930313Y650382D01*
X930431Y650265D01*
X930548Y650148D01*
X930626Y649875D01*
Y649797D01*
Y649758D01*
X930587Y649523D01*
X930509Y649328D01*
X930392Y649211D01*
X930235Y649094D01*
X930001Y649016D01*
X929884D01*
X929650Y649055D01*
X929455Y649133D01*
X929337Y649250D01*
X929220Y649406D01*
X929142Y649641D01*
Y649719D01*
Y649758D01*
X929181Y649992D01*
X929259Y650187D01*
X929377Y650304D01*
X929494Y650422D01*
X929767Y650499D01*
X929884D01*
X930118Y650461D01*
D02*
G37*
%LPC*%
G36*
X929923Y649875D02*
X929806D01*
X929767Y649836D01*
Y649797D01*
Y649758D01*
Y649680D01*
X929806Y649641D01*
X929884D01*
X929962Y649680D01*
X930001Y649719D01*
Y649758D01*
X929962Y649836D01*
X929923Y649875D01*
D02*
G37*
G36*
X767281Y619292D02*
X767164D01*
Y619233D01*
X766578Y619116D01*
X766051Y618941D01*
X765758Y618765D01*
X765641Y618648D01*
X765465Y618531D01*
X765407Y618472D01*
Y618413D01*
X765290Y618179D01*
X765231Y618121D01*
X765173D01*
X759725Y608632D01*
X761600Y607870D01*
X762185Y607695D01*
X762712Y607636D01*
X762947Y607578D01*
X763884D01*
X764470Y607636D01*
X766930D01*
X767398Y607578D01*
X767867Y607460D01*
X768218Y607402D01*
X768453Y607343D01*
X768628Y607285D01*
X768687D01*
X769097Y607109D01*
X769565Y606933D01*
X770385Y606406D01*
X770737Y606172D01*
X771030Y605996D01*
X771205Y605879D01*
X771264Y605820D01*
X771440Y605703D01*
X771733Y605527D01*
X771908Y605410D01*
X772026Y605352D01*
X772260Y605235D01*
X772318Y605176D01*
X772377D01*
X772494Y605117D01*
X772553Y605059D01*
X772963Y604766D01*
X773255Y604532D01*
X773431Y604415D01*
X773490Y604356D01*
X773841Y604063D01*
X774075Y603829D01*
X774193Y603712D01*
X774251Y603653D01*
X776711Y605059D01*
X769214Y618062D01*
X768980Y618355D01*
X768745Y618648D01*
X768570Y618765D01*
X768511Y618823D01*
X768453Y618882D01*
X768394D01*
X768335Y618941D01*
X767925Y619175D01*
X767574Y619233D01*
X767281Y619292D01*
D02*
G37*
G36*
X759432Y608105D02*
X756211Y602599D01*
X756504Y602365D01*
X756621Y602306D01*
X756680Y602247D01*
X756914Y601955D01*
X757148Y601603D01*
X757324Y601427D01*
X757382Y601310D01*
X757558Y600959D01*
X757675Y600549D01*
X757792Y600256D01*
X757851Y600197D01*
Y600139D01*
X758027Y599612D01*
X758202Y599319D01*
X758261Y599143D01*
X758319Y599085D01*
X758554Y598792D01*
X758612Y598733D01*
X758671Y598675D01*
X758964Y598382D01*
X759022Y598323D01*
X759081Y598265D01*
X759608Y597737D01*
X760135Y597327D01*
X760604Y596976D01*
X760955Y596742D01*
X761307Y596566D01*
X761541Y596449D01*
X761658Y596390D01*
X761717D01*
X773724Y603360D01*
X773314Y603712D01*
X773197Y603829D01*
X773138Y603887D01*
X772787Y604122D01*
X772494Y604356D01*
X772260Y604473D01*
X772201Y604532D01*
X771967Y604707D01*
X771850Y604766D01*
X771733Y604825D01*
X771381Y605059D01*
X771088Y605235D01*
X770971Y605293D01*
X770913Y605352D01*
X770385Y605703D01*
X769917Y605996D01*
X769507Y606230D01*
X769155Y606406D01*
X768863Y606523D01*
X768628Y606640D01*
X768511Y606699D01*
X768453D01*
X767574Y606933D01*
X766754Y607050D01*
X765465D01*
X765173Y606992D01*
X765055D01*
X764352Y606933D01*
X763181D01*
X762478Y606992D01*
X761892Y607168D01*
X761717Y607226D01*
X761541Y607285D01*
X761424Y607343D01*
X761365D01*
X759432Y608105D01*
D02*
G37*
G36*
X768043Y597913D02*
X766578Y597034D01*
X766930Y596800D01*
X767223Y596566D01*
X767457Y596332D01*
X767574Y596273D01*
X767691Y596449D01*
X767808Y596624D01*
X767867Y596800D01*
X767925Y596859D01*
X767984Y596976D01*
X768101Y597327D01*
Y597444D01*
Y597503D01*
Y597620D01*
Y597796D01*
X768043Y597854D01*
Y597913D01*
D02*
G37*
G36*
X769683Y598850D02*
X768628Y598265D01*
X768687Y597972D01*
X768745Y597737D01*
Y597562D01*
Y597503D01*
X768687Y597210D01*
X768628Y596976D01*
X768570Y596800D01*
Y596742D01*
X768511Y596624D01*
X768335Y596273D01*
X768218Y596039D01*
X768101Y595922D01*
Y595863D01*
X768453Y595512D01*
X768804Y595219D01*
X769038Y594985D01*
X769097Y594867D01*
X769155Y594809D01*
X769214Y594750D01*
X769273Y594692D01*
X769331Y594633D01*
X769507Y594985D01*
X769624Y595219D01*
X769683Y595395D01*
X769741Y595453D01*
X769800Y595570D01*
X769858Y595687D01*
X769917Y595863D01*
Y595922D01*
X769975Y596156D01*
Y596449D01*
Y596683D01*
Y596800D01*
Y596859D01*
Y596976D01*
Y597327D01*
Y597620D01*
Y597737D01*
Y597796D01*
X769917Y598206D01*
Y598323D01*
Y598382D01*
X769800Y598733D01*
X769683Y598792D01*
Y598850D01*
D02*
G37*
G36*
X771147Y599729D02*
X770210Y599202D01*
X770327Y598967D01*
X770444Y598792D01*
X770503Y598616D01*
Y598557D01*
X770561Y598265D01*
X770620Y598030D01*
Y597854D01*
Y597796D01*
Y597444D01*
Y597327D01*
Y597269D01*
Y596976D01*
Y596859D01*
Y596800D01*
Y596332D01*
X770561Y596039D01*
X770503Y595863D01*
Y595804D01*
Y595746D01*
X770444Y595570D01*
Y595512D01*
Y595453D01*
X770385D01*
X770327Y595336D01*
X770268Y595277D01*
Y595219D01*
X770093Y594809D01*
X769858Y594457D01*
X769741Y594223D01*
X769683Y594106D01*
X769975Y593696D01*
X770151Y593344D01*
X770268Y593110D01*
X770327Y592993D01*
X770561Y593169D01*
X770620Y593227D01*
X770678D01*
X770854Y593344D01*
X770971Y593462D01*
X771088Y593520D01*
Y593579D01*
X771147Y593637D01*
X771205Y593696D01*
X771264D01*
X771440Y593754D01*
Y593813D01*
X771498D01*
X771557Y593872D01*
X771615D01*
Y593930D01*
X771674Y593989D01*
Y594106D01*
Y594516D01*
X771615Y594867D01*
X771557Y595102D01*
Y595219D01*
Y595629D01*
X771674Y596097D01*
X771791Y596449D01*
X771850Y596566D01*
Y596624D01*
X771967Y596976D01*
X772026Y597210D01*
X772084Y597620D01*
Y597796D01*
Y597854D01*
X771967Y598089D01*
X771850Y598323D01*
X771733Y598557D01*
X771674Y598616D01*
X771440Y599085D01*
X771264Y599436D01*
X771147Y599670D01*
Y599729D01*
D02*
G37*
G36*
X764294Y594164D02*
X764235D01*
X764118Y594047D01*
X763825Y593872D01*
X763650Y593637D01*
X763532Y593579D01*
Y593520D01*
Y593462D01*
X763474D01*
Y593403D01*
X763357Y593227D01*
Y593169D01*
Y593110D01*
Y592934D01*
X763415Y592759D01*
X763474Y592583D01*
Y592524D01*
X763532D01*
X763650Y592407D01*
X763884Y592349D01*
X764118D01*
X764587Y592407D01*
X764938Y592466D01*
X765173Y592524D01*
X765290D01*
X765583Y592642D01*
X765641Y592700D01*
X765700D01*
X765641Y592759D01*
Y592817D01*
X765583Y592876D01*
X765348Y593227D01*
X765173Y593520D01*
X764997Y593637D01*
X764938Y593696D01*
X764762Y593872D01*
X764528Y593989D01*
X764352Y594106D01*
X764294Y594164D01*
D02*
G37*
G36*
X774895Y601896D02*
X771733Y600080D01*
X771791Y599729D01*
X771967Y599377D01*
X772143Y599085D01*
X772201Y599026D01*
Y598967D01*
X772436Y598557D01*
X772611Y598265D01*
X772670Y598030D01*
Y597972D01*
Y597796D01*
Y597503D01*
X772611Y597034D01*
X772553Y596742D01*
X772494Y596566D01*
X772436Y596449D01*
Y596390D01*
X772318Y596097D01*
X772260Y595863D01*
X772201Y595570D01*
Y595453D01*
Y595395D01*
X772260Y594926D01*
Y594457D01*
Y594164D01*
Y594106D01*
Y594047D01*
Y593930D01*
Y593872D01*
X772201Y593754D01*
Y593696D01*
X772143Y593462D01*
Y593344D01*
X772084Y593110D01*
X772026Y592993D01*
Y592934D01*
X771850Y592349D01*
X771733Y591939D01*
X771615Y591587D01*
Y591294D01*
X771557Y591119D01*
Y591002D01*
Y590884D01*
X771674Y590533D01*
X771850Y590240D01*
X772026Y590006D01*
X772084Y589947D01*
X772143Y589889D01*
X772201Y589830D01*
Y590006D01*
Y590123D01*
Y590357D01*
Y590474D01*
X772377Y590826D01*
X772436Y590943D01*
X772494Y591002D01*
X772611Y591177D01*
X772670Y591236D01*
X772846Y591529D01*
X773080Y591763D01*
X773255Y591880D01*
X773490Y591997D01*
X773841Y592114D01*
X774134D01*
X774193Y592056D01*
X774251D01*
X774310Y591997D01*
X774368D01*
X774427Y592232D01*
X774485Y592466D01*
X774544Y592642D01*
X774603Y592700D01*
X774778Y593110D01*
X774954Y593462D01*
X775013Y593696D01*
X775071Y593754D01*
X775130Y594223D01*
X775247Y594633D01*
X775305Y595043D01*
Y595102D01*
Y595160D01*
X775364Y595863D01*
X775481Y596332D01*
X775540Y596624D01*
Y596742D01*
Y596800D01*
X775598Y596976D01*
X775657Y597152D01*
X775715Y597269D01*
Y597327D01*
X775833Y597796D01*
X775891Y598147D01*
X775950Y598499D01*
Y598733D01*
Y598909D01*
Y599026D01*
Y599143D01*
X775833Y599436D01*
X775715Y599787D01*
X775598Y600080D01*
X775540Y600139D01*
Y600197D01*
X775188Y600900D01*
X775013Y601427D01*
X774895Y601779D01*
Y601896D01*
D02*
G37*
G36*
X765993Y596742D02*
X763650Y595395D01*
X763942Y595160D01*
X764235Y594926D01*
X764470Y594750D01*
X764528Y594692D01*
X764587D01*
X764938Y594457D01*
X765173Y594340D01*
X765231Y594223D01*
X765290D01*
X765641Y593872D01*
X765934Y593520D01*
X766110Y593286D01*
X766168Y593227D01*
Y593169D01*
X766285Y592934D01*
X766344Y592759D01*
X766403Y592642D01*
Y592583D01*
Y592466D01*
X766461Y592407D01*
Y592349D01*
X766813Y592466D01*
X766988D01*
X767223Y592524D01*
X767281Y592583D01*
X768043D01*
X768394Y592524D01*
X768511D01*
X768628Y592466D01*
X768687D01*
X768745Y592407D01*
X768921D01*
X768980Y592349D01*
X769038D01*
X769390Y592232D01*
X769624Y592056D01*
X769800Y591939D01*
X769858Y591880D01*
X769975Y591646D01*
X770027Y591595D01*
X770034Y591529D01*
Y591587D01*
X770027Y591595D01*
X769975Y592056D01*
X769800Y592583D01*
X769565Y593052D01*
X769331Y593520D01*
X769097Y593930D01*
X768863Y594223D01*
X768687Y594399D01*
X768628Y594457D01*
X768160Y594985D01*
X767691Y595395D01*
X767398Y595629D01*
X767340Y595746D01*
X767281D01*
X766754Y596156D01*
X766344Y596449D01*
X766110Y596683D01*
X765993Y596742D01*
D02*
G37*
G36*
X765875Y592114D02*
X765758Y592056D01*
X765641Y591997D01*
X765524Y591939D01*
X765290D01*
X765173Y591880D01*
X764997Y591587D01*
Y591353D01*
Y591177D01*
Y591119D01*
Y591002D01*
X765055Y590943D01*
Y590884D01*
X765114Y590826D01*
X765173Y590767D01*
X765348Y590650D01*
X765524Y590592D01*
X765700D01*
X765993Y590650D01*
X766227Y590767D01*
X766344Y590826D01*
X766403Y590884D01*
X766168Y591236D01*
X766051Y591587D01*
X765993Y591822D01*
Y591880D01*
X765934Y592056D01*
X765875Y592114D01*
D02*
G37*
G36*
X767808Y592290D02*
X767340D01*
X766988Y592173D01*
X766754Y592114D01*
X766637Y592056D01*
X766578Y591997D01*
X766637Y591704D01*
X766813Y591353D01*
X767047Y591060D01*
X767105Y591002D01*
Y590943D01*
X767398Y590533D01*
X767633Y590240D01*
X767808Y590123D01*
X767867Y590064D01*
X768043Y589947D01*
X768160Y589889D01*
X768277Y589830D01*
X768511Y589771D01*
X768628D01*
X768863Y589713D01*
X769155D01*
X769390Y589771D01*
X769507Y589830D01*
X769565Y589947D01*
X769800Y590182D01*
X769917Y590474D01*
X769975Y590650D01*
Y590767D01*
X769917Y591002D01*
Y591060D01*
X769741Y591353D01*
X769683Y591529D01*
X769624Y591646D01*
X769390Y591822D01*
X769155Y591939D01*
X768980Y592056D01*
X768863D01*
X768804Y592114D01*
X768628D01*
X768570Y592173D01*
X768335Y592232D01*
X768043D01*
X767808Y592290D01*
D02*
G37*
G36*
X774193Y591763D02*
X773724D01*
X773548Y591646D01*
X773197Y591470D01*
X772963Y591236D01*
X772904Y591177D01*
Y591119D01*
X772846Y591002D01*
Y590943D01*
X772787Y590884D01*
Y590826D01*
X772611Y590533D01*
X772553Y590416D01*
Y590357D01*
X772494Y590299D01*
Y590240D01*
Y590182D01*
Y590123D01*
Y589947D01*
X772553Y589889D01*
Y589830D01*
Y589713D01*
X772611Y589654D01*
X772846D01*
X773080Y589713D01*
X773314Y589830D01*
X773431Y589947D01*
X773490Y590006D01*
X773607Y590182D01*
X773724Y590416D01*
X773958Y590884D01*
X774017Y591119D01*
X774134Y591353D01*
X774193Y591470D01*
Y591529D01*
X774251Y591704D01*
X774193Y591763D01*
D02*
G37*
G36*
X777648Y603478D02*
X775481Y602189D01*
X775598Y601662D01*
X775774Y601076D01*
X775891Y600842D01*
X776008Y600666D01*
X776067Y600549D01*
Y600490D01*
X776301Y599963D01*
X776418Y599612D01*
X776535Y599377D01*
Y599319D01*
X776594Y599026D01*
Y598733D01*
X776477Y598030D01*
X776418Y597737D01*
X776360Y597444D01*
X776301Y597269D01*
Y597210D01*
X776243Y596976D01*
X776184Y596742D01*
Y596683D01*
Y596624D01*
X776125Y596566D01*
X776067Y596156D01*
X776008Y595629D01*
X775950Y595395D01*
X775891Y595219D01*
Y595102D01*
Y595043D01*
X775833Y594692D01*
X775774Y594399D01*
X775715Y593930D01*
X775657Y593637D01*
Y593579D01*
X775540Y593286D01*
X775364Y592876D01*
X775247Y592583D01*
X775188Y592524D01*
Y592466D01*
X775071Y592232D01*
X775013Y591997D01*
X774895Y591763D01*
X774837Y591646D01*
Y591587D01*
Y591529D01*
X774778Y591470D01*
Y591412D01*
Y591353D01*
X774603Y590884D01*
X774485Y590533D01*
X774310Y590240D01*
X774193Y590006D01*
X774134Y589830D01*
X774017Y589713D01*
X773958Y589654D01*
X773607Y589303D01*
X773197Y589127D01*
X772963Y589010D01*
X772846D01*
X772436Y589069D01*
X772260Y589127D01*
X772201D01*
X771850Y589361D01*
X771733Y589420D01*
X771674Y589479D01*
X771440Y589713D01*
X771264Y589947D01*
X771030Y590416D01*
X770913Y590767D01*
Y590826D01*
Y590884D01*
Y591119D01*
X770971Y591412D01*
X771147Y592114D01*
X771205Y592407D01*
X771323Y592700D01*
X771381Y592876D01*
Y592934D01*
X771264Y592876D01*
X771147Y592759D01*
X771030Y592700D01*
X770971D01*
X770737Y592524D01*
X770620Y592407D01*
X770561Y592349D01*
X770620Y592056D01*
Y591763D01*
Y591529D01*
Y591470D01*
Y591412D01*
Y591353D01*
Y591294D01*
Y590884D01*
X770503Y590474D01*
X770444Y590182D01*
X770327Y589947D01*
X770151Y589596D01*
X770034Y589479D01*
X769800Y589303D01*
X769507Y589186D01*
X769273Y589127D01*
X768570D01*
X768160Y589244D01*
X768043Y589303D01*
X767984D01*
X767633Y589479D01*
X767574Y589596D01*
X767515D01*
X767223Y589830D01*
X766988Y590064D01*
X766813Y590299D01*
X766754Y590357D01*
X766403Y590182D01*
X766051Y590064D01*
X765817Y590006D01*
X765758D01*
X765348Y590064D01*
X764997Y590182D01*
X764762Y590299D01*
X764704Y590357D01*
X764645Y590416D01*
X764528Y590592D01*
X764470Y590709D01*
X764411Y590943D01*
X764352Y591002D01*
Y591294D01*
Y591529D01*
X764411Y591704D01*
Y591763D01*
X764118D01*
X763591Y591822D01*
X763240Y591939D01*
X763064Y592056D01*
X763005Y592114D01*
X762947Y592290D01*
X762888Y592349D01*
X762830Y592642D01*
X762771Y592876D01*
X762712Y592993D01*
Y593052D01*
X762771Y593344D01*
X762830Y593579D01*
X762947Y593754D01*
X763005Y593813D01*
X763064Y593872D01*
Y593930D01*
X763357Y594223D01*
X763532Y594399D01*
X763650Y594457D01*
X763708Y594516D01*
X763298Y594867D01*
X763181Y594985D01*
X763122Y595043D01*
X749944Y587429D01*
X750119Y587312D01*
X750354Y587194D01*
X750529Y587136D01*
X750705D01*
X750822Y587077D01*
X751232D01*
Y587019D01*
X783096D01*
X783447Y587077D01*
X783740Y587136D01*
X784209Y587370D01*
X784560Y587546D01*
X784619Y587663D01*
X784677D01*
X784853Y587839D01*
X784911Y587897D01*
X785087Y588131D01*
X785146Y588190D01*
X785380Y588776D01*
X785439Y589303D01*
Y589537D01*
X785380Y589654D01*
Y589771D01*
Y589830D01*
X785321Y590064D01*
Y590123D01*
X785204Y590357D01*
X785146Y590416D01*
Y590474D01*
X777648Y603478D01*
D02*
G37*
G36*
X755918Y602072D02*
X749241Y590533D01*
X749065Y590182D01*
X749007Y589889D01*
X748948Y589654D01*
Y589596D01*
Y589537D01*
Y589420D01*
Y589361D01*
Y589127D01*
Y589010D01*
X761014Y595980D01*
X760604Y596214D01*
X760194Y596507D01*
X759374Y597093D01*
X759081Y597386D01*
X758847Y597562D01*
X758671Y597737D01*
X758612Y597796D01*
X758437Y597972D01*
X758319Y598147D01*
X758202Y598265D01*
X758144Y598323D01*
X757968Y598616D01*
X757851Y598675D01*
Y598733D01*
X757617Y599085D01*
X757441Y599436D01*
X757324Y599787D01*
X757265Y599846D01*
Y599905D01*
X757089Y600373D01*
X756972Y600725D01*
X756855Y600900D01*
Y600959D01*
X756621Y601310D01*
X756387Y601603D01*
X756270Y601720D01*
X756211Y601779D01*
X756035Y602013D01*
X755918Y602072D01*
D02*
G37*
%LPD*%
D10*
X994000Y638700D02*
G03*
X994000Y638700I-1250J0D01*
G01*
X995500Y718200D02*
G03*
X995500Y718200I-1250J0D01*
G01*
X995750Y812450D02*
G03*
X995750Y812450I-1250J0D01*
G01*
X820000Y732500D02*
G03*
X820000Y732500I-1250J0D01*
G01*
D13*
X906000Y766500D02*
G03*
X906000Y766500I-1000J0D01*
G01*
X1005000Y641500D02*
X1037000D01*
X1005000Y691500D02*
X1037000D01*
X1006500Y721000D02*
X1038500D01*
X1006500Y771000D02*
X1038500D01*
X1006750Y815250D02*
X1038750D01*
X1006750Y865250D02*
X1038750D01*
X824000Y721000D02*
X886000D01*
X824000Y659000D02*
X886000D01*
X824000D02*
Y721000D01*
X886000Y659000D02*
Y721000D01*
X1014000Y796250D02*
X1017000D01*
X1024000D02*
X1026000D01*
X1017000Y792250D02*
Y801250D01*
X1024000Y796250D01*
X1017000Y792250D02*
X1024000Y796250D01*
Y791250D02*
Y801250D01*
X857500Y861000D02*
X887500D01*
X911000Y807500D02*
Y837500D01*
X857500Y784000D02*
X887500D01*
X834000Y807500D02*
Y837500D01*
X902500Y869500D02*
Y875500D01*
X899500Y872500D02*
X905500D01*
X1024000Y617500D02*
Y627500D01*
X1017000Y618500D02*
X1024000Y622500D01*
X1017000Y627500D02*
X1024000Y622500D01*
X1017000Y618500D02*
Y627500D01*
X1024000Y622500D02*
X1026000D01*
X1014000D02*
X1017000D01*
X1024000Y699750D02*
Y709750D01*
X1017000Y700750D02*
X1024000Y704750D01*
X1017000Y709750D02*
X1024000Y704750D01*
X1017000Y700750D02*
Y709750D01*
X1024000Y704750D02*
X1026000D01*
X1014000D02*
X1017000D01*
X1092500Y811500D02*
Y823500D01*
X1092500Y626500D02*
Y638500D01*
Y841500D02*
Y853500D01*
X1092750Y656000D02*
Y668000D01*
X1092500Y721500D02*
Y733500D01*
Y751500D02*
Y763500D01*
X774250Y650500D02*
X786250D01*
X928500Y845250D02*
X940500D01*
X754500Y756000D02*
X766500D01*
X928500Y744250D02*
X940500D01*
X729000Y756000D02*
X741000D01*
X774000Y701750D02*
X786000D01*
X751750Y650500D02*
X763750D01*
X751500Y701750D02*
X763500D01*
X729250Y650500D02*
X741250D01*
X729000Y701750D02*
X741000D01*
X806500Y602000D02*
X818500D01*
X829000D02*
X841000D01*
X851500D02*
X863500D01*
X808750Y812300D02*
X820750D01*
D14*
X1075500Y808500D02*
Y826500D01*
X1109500D01*
Y808500D02*
Y826500D01*
X1075500Y808500D02*
X1109500D01*
X1075500Y623500D02*
Y641500D01*
X1109500D01*
Y623500D02*
Y641500D01*
X1075500Y623500D02*
X1109500D01*
X1075500Y838500D02*
Y856500D01*
X1109500D01*
Y838500D02*
Y856500D01*
X1075500Y838500D02*
X1109500D01*
X1075750Y653000D02*
Y671000D01*
X1109750D01*
Y653000D02*
Y671000D01*
X1075750Y653000D02*
X1109750D01*
X1075500Y718500D02*
Y736500D01*
X1109500D01*
Y718500D02*
Y736500D01*
X1075500Y718500D02*
X1109500D01*
X1075500Y748500D02*
Y766500D01*
X1109500D01*
Y748500D02*
Y766500D01*
X1075500Y748500D02*
X1109500D01*
X771250Y633500D02*
X789250D01*
X771250D02*
Y667500D01*
X789250D01*
Y633500D02*
Y667500D01*
X925500Y828250D02*
X943500D01*
X925500D02*
Y862250D01*
X943500D01*
Y828250D02*
Y862250D01*
X751500Y739000D02*
X769500D01*
X751500D02*
Y773000D01*
X769500D01*
Y739000D02*
Y773000D01*
X925500Y761250D02*
X943500D01*
Y727250D02*
Y761250D01*
X925500Y727250D02*
X943500D01*
X925500D02*
Y761250D01*
X726000Y739000D02*
X744000D01*
X726000D02*
Y773000D01*
X744000D01*
Y739000D02*
Y773000D01*
X771000Y684750D02*
X789000D01*
X771000D02*
Y718750D01*
X789000D01*
Y684750D02*
Y718750D01*
X748750Y633500D02*
X766750D01*
X748750D02*
Y667500D01*
X766750D01*
Y633500D02*
Y667500D01*
X748500Y684750D02*
X766500D01*
X748500D02*
Y718750D01*
X766500D01*
Y684750D02*
Y718750D01*
X726250Y633500D02*
X744250D01*
X726250D02*
Y667500D01*
X744250D01*
Y633500D02*
Y667500D01*
X726000Y684750D02*
X744000D01*
X726000D02*
Y718750D01*
X744000D01*
Y684750D02*
Y718750D01*
X803500Y585000D02*
X821500D01*
X803500D02*
Y619000D01*
X821500D01*
Y585000D02*
Y619000D01*
X826000Y585000D02*
X844000D01*
X826000D02*
Y619000D01*
X844000D01*
Y585000D02*
Y619000D01*
X848500Y585000D02*
X866500D01*
X848500D02*
Y619000D01*
X866500D01*
Y585000D02*
Y619000D01*
X805750Y795300D02*
X823750D01*
X805750D02*
Y829300D01*
X823750D01*
Y795300D02*
Y829300D01*
D15*
X1042860Y787090D02*
X1046670D01*
Y793710D01*
Y798790D02*
Y805410D01*
X1042860D02*
X1046670D01*
X994600D02*
X1042860D01*
X994600Y803000D02*
Y805410D01*
Y787090D02*
Y789500D01*
Y787090D02*
X1042860D01*
X1070250Y798250D02*
Y800750D01*
X1117750D01*
Y798250D02*
Y800750D01*
Y778250D02*
Y780750D01*
X1070250Y778250D02*
X1117750D01*
X1070250D02*
Y780750D01*
X1094000Y778250D02*
Y800750D01*
X1070250Y605750D02*
Y608250D01*
X1117750D01*
Y605750D02*
Y608250D01*
Y585750D02*
Y588250D01*
X1070250Y585750D02*
X1117750D01*
X1070250D02*
Y588250D01*
X1094000Y585750D02*
Y608250D01*
X973750Y840750D02*
X976250D01*
Y793250D02*
Y840750D01*
X973750Y793250D02*
X976250D01*
X953750D02*
X956250D01*
X953750D02*
Y840750D01*
X956250D01*
X953750Y817000D02*
X976250D01*
X973750Y761750D02*
X976250D01*
Y714250D02*
Y761750D01*
X973750Y714250D02*
X976250D01*
X953750D02*
X956250D01*
X953750D02*
Y761750D01*
X956250D01*
X953750Y738000D02*
X976250D01*
X1070250Y705250D02*
Y707750D01*
X1117750D01*
Y705250D02*
Y707750D01*
Y685250D02*
Y687750D01*
X1070250Y685250D02*
X1117750D01*
X1070250D02*
Y687750D01*
X1094000Y685250D02*
Y707750D01*
X973750Y686750D02*
X976250D01*
Y639250D02*
Y686750D01*
X973750Y639250D02*
X976250D01*
X953750D02*
X956250D01*
X953750D02*
Y686750D01*
X956250D01*
X953750Y663000D02*
X976250D01*
X871000Y601500D02*
X889000D01*
X871000Y584500D02*
X875000D01*
X871000D02*
Y618500D01*
X875000D01*
X885000D02*
X889000D01*
Y584500D02*
Y618500D01*
X885000Y584500D02*
X889000D01*
X780250Y812820D02*
X798250D01*
X780250Y795820D02*
X784250D01*
X780250D02*
Y829820D01*
X784250D01*
X794250D02*
X798250D01*
Y795820D02*
Y829820D01*
X794250Y795820D02*
X798250D01*
X854500Y748500D02*
Y766500D01*
X837500Y762500D02*
Y766500D01*
X871500D01*
Y762500D02*
Y766500D01*
Y748500D02*
Y752500D01*
X837500Y748500D02*
X871500D01*
X837500D02*
Y752500D01*
X994600Y613340D02*
X1042860D01*
X994600D02*
Y615750D01*
Y629250D02*
Y631660D01*
X1042860D01*
X1046670D01*
Y625040D02*
Y631660D01*
Y613340D02*
Y619960D01*
X1042860Y613340D02*
X1046670D01*
X994600Y695590D02*
X1042860D01*
X994600D02*
Y698000D01*
Y711500D02*
Y713910D01*
X1042860D01*
X1046670D01*
Y707290D02*
Y713910D01*
Y695590D02*
Y702210D01*
X1042860Y695590D02*
X1046670D01*
X730940Y804960D02*
X733480Y807500D01*
X736020Y804960D01*
X730940D02*
X736020D01*
X733480Y807500D02*
Y810040D01*
X724480Y807500D02*
X742480D01*
X724480Y826550D02*
X730940D01*
X724480Y787180D02*
Y826550D01*
Y787180D02*
X726480D01*
X736020Y826550D02*
X742480D01*
Y787180D02*
Y826550D01*
X740480Y787180D02*
X742480D01*
X730940Y826550D02*
Y827820D01*
X724480D02*
X730940D01*
X724480Y826550D02*
Y827820D01*
X742480Y826550D02*
Y827820D01*
X736020D02*
X742480D01*
X736020Y826550D02*
Y827820D01*
X935020Y791000D02*
X937560Y793540D01*
X932480D02*
X935020Y791000D01*
X932480Y793540D02*
X937560D01*
X935020Y788460D02*
Y791000D01*
X926020D02*
X944020D01*
X937560Y771950D02*
X944020D01*
Y811320D01*
X942020D02*
X944020D01*
X926020Y771950D02*
X932480D01*
X926020D02*
Y811320D01*
X928020D01*
X937560Y770680D02*
Y771950D01*
Y770680D02*
X944020D01*
Y771950D01*
X926020Y770680D02*
Y771950D01*
Y770680D02*
X932480D01*
Y771950D01*
X757710Y804960D02*
X760250Y807500D01*
X762790Y804960D01*
X757710D02*
X762790D01*
X760250Y807500D02*
Y810040D01*
X751250Y807500D02*
X769250D01*
X751250Y826550D02*
X757710D01*
X751250Y787180D02*
Y826550D01*
Y787180D02*
X753250D01*
X762790Y826550D02*
X769250D01*
Y787180D02*
Y826550D01*
X767250Y787180D02*
X769250D01*
X757710Y826550D02*
Y827820D01*
X751250D02*
X757710D01*
X751250Y826550D02*
Y827820D01*
X769250Y826550D02*
Y827820D01*
X762790D02*
X769250D01*
X762790Y826550D02*
Y827820D01*
D16*
X742869Y843500D02*
Y863500D01*
X817227D01*
Y843500D02*
Y863500D01*
X742869Y843500D02*
X817227D01*
X902514Y602500D02*
Y622500D01*
X947189D01*
Y602500D02*
Y622500D01*
X902514Y602500D02*
X947189D01*
X811665Y869082D02*
X812498Y868249D01*
Y866583D01*
X811665Y865750D01*
X808333D01*
X807500Y866583D01*
Y868249D01*
X808333Y869082D01*
X809999D01*
Y867416D01*
X807500Y870748D02*
X812498D01*
X807500Y874081D01*
X812498D01*
Y875747D02*
X807500D01*
Y878246D01*
X808333Y879079D01*
X811665D01*
X812498Y878246D01*
Y875747D01*
X797498Y869082D02*
Y865750D01*
X794999D01*
X795832Y867416D01*
Y868249D01*
X794999Y869082D01*
X793333D01*
X792500Y868249D01*
Y866583D01*
X793333Y865750D01*
X797498Y870748D02*
X794166D01*
X792500Y872414D01*
X794166Y874081D01*
X797498D01*
X782498Y865750D02*
X777500D01*
Y868249D01*
X778333Y869082D01*
X781665D01*
X782498Y868249D01*
Y865750D01*
Y870748D02*
Y874081D01*
Y872414D01*
X777500D01*
Y875747D02*
X782498D01*
Y878246D01*
X781665Y879079D01*
X779999D01*
X779166Y878246D01*
Y875747D01*
Y877413D02*
X777500Y879079D01*
X763000Y866000D02*
X767998D01*
Y868499D01*
X767165Y869332D01*
X765499D01*
X764666Y868499D01*
Y866000D01*
Y867666D02*
X763000Y869332D01*
X767998Y870998D02*
X763000Y874331D01*
X767998D02*
X763000Y870998D01*
X752998Y866000D02*
Y869332D01*
Y867666D01*
X748000D01*
X752998Y870998D02*
X748000Y874331D01*
X752998D02*
X748000Y870998D01*
X942248Y587501D02*
X943248Y586501D01*
Y584502D01*
X942248Y583502D01*
X938250D01*
X937250Y584502D01*
Y586501D01*
X938250Y587501D01*
X940249D01*
Y585501D01*
X937250Y589500D02*
X943248D01*
X937250Y593499D01*
X943248D01*
Y595498D02*
X937250D01*
Y598497D01*
X938250Y599497D01*
X942248D01*
X943248Y598497D01*
Y595498D01*
X921500Y583502D02*
X927498D01*
Y586501D01*
X926498Y587501D01*
X924499D01*
X923499Y586501D01*
Y583502D01*
X927498Y589500D02*
X921500D01*
X923499Y591499D01*
X921500Y593499D01*
X927498D01*
X921500Y595498D02*
X927498D01*
X925499Y597497D01*
X927498Y599497D01*
X921500D01*
X911998Y593499D02*
Y589500D01*
X908999D01*
X909999Y591499D01*
Y592499D01*
X908999Y593499D01*
X907000D01*
X906000Y592499D01*
Y590500D01*
X907000Y589500D01*
X911998Y595498D02*
X907999D01*
X906000Y597497D01*
X907999Y599497D01*
X911998D01*
X1129920Y620168D02*
Y625500D01*
X1133918D01*
Y622834D01*
Y625500D01*
X1137917D01*
Y617503D02*
X1132585D01*
X1129920Y614837D01*
X1132585Y612171D01*
X1137917D01*
X1133918D01*
Y617503D01*
X1129920Y609505D02*
Y604174D01*
X1131253D01*
X1136584Y609505D01*
X1137917D01*
Y604174D01*
X1139250Y601508D02*
Y596176D01*
X1131253Y593510D02*
X1129920Y592177D01*
Y589512D01*
X1131253Y588179D01*
X1132585D01*
X1133918Y589512D01*
Y590844D01*
Y589512D01*
X1135251Y588179D01*
X1136584D01*
X1137917Y589512D01*
Y592177D01*
X1136584Y593510D01*
X1129920Y742668D02*
Y748000D01*
X1133918D01*
Y745334D01*
Y748000D01*
X1137917D01*
Y740003D02*
X1132585D01*
X1129920Y737337D01*
X1132585Y734671D01*
X1137917D01*
X1133918D01*
Y740003D01*
X1129920Y732005D02*
Y726674D01*
X1131253D01*
X1136584Y732005D01*
X1137917D01*
Y726674D01*
X1139250Y724008D02*
Y718676D01*
X1137917Y710679D02*
Y716010D01*
X1132585Y710679D01*
X1131253D01*
X1129920Y712012D01*
Y714677D01*
X1131253Y716010D01*
X1129920Y866668D02*
Y872000D01*
X1133918D01*
Y869334D01*
Y872000D01*
X1137917D01*
Y864003D02*
X1132585D01*
X1129920Y861337D01*
X1132585Y858671D01*
X1137917D01*
X1133918D01*
Y864003D01*
X1129920Y856005D02*
Y850674D01*
X1131253D01*
X1136584Y856005D01*
X1137917D01*
Y850674D01*
X1139250Y848008D02*
Y842676D01*
X1137917Y840010D02*
Y837345D01*
Y838677D01*
X1129920D01*
X1131253Y840010D01*
X731250Y628000D02*
X736582D01*
X739247D02*
X744579D01*
X714500Y831249D02*
X718499D01*
X716499Y833249D02*
Y829250D01*
X720498Y831249D02*
X724497D01*
X722497Y833249D02*
Y829250D01*
X892494Y877248D02*
Y871250D01*
X889494D01*
X888495Y872250D01*
Y873249D01*
X889494Y874249D01*
X892494D01*
X889494D01*
X888495Y875249D01*
Y876248D01*
X889494Y877248D01*
X892494D01*
X886496D02*
Y872250D01*
X885496Y871250D01*
X883496D01*
X882497Y872250D01*
Y877248D01*
X880497D02*
X876499D01*
Y876248D01*
X880497Y872250D01*
Y871250D01*
X876499D01*
X874499D02*
X872500D01*
X873500D01*
Y877248D01*
X874499Y876248D01*
X1124998Y791748D02*
X1125998Y792748D01*
X1127997D01*
X1128997Y791748D01*
Y787750D01*
X1127997Y786750D01*
X1125998D01*
X1124998Y787750D01*
X1119000Y792748D02*
X1120999Y791748D01*
X1122999Y789749D01*
Y787750D01*
X1121999Y786750D01*
X1120000D01*
X1119000Y787750D01*
Y788749D01*
X1120000Y789749D01*
X1122999D01*
X1064748Y598248D02*
X1065748Y599248D01*
X1067747D01*
X1068747Y598248D01*
Y594250D01*
X1067747Y593250D01*
X1065748D01*
X1064748Y594250D01*
X1062749Y599248D02*
X1058750D01*
Y598248D01*
X1062749Y594250D01*
Y593250D01*
X967123Y852596D02*
X968123Y853596D01*
X970122D01*
X971122Y852596D01*
Y848598D01*
X970122Y847598D01*
X968123D01*
X967123Y848598D01*
X965124Y852596D02*
X964124Y853596D01*
X962125D01*
X961125Y852596D01*
Y851597D01*
X962125Y850597D01*
X961125Y849597D01*
Y848598D01*
X962125Y847598D01*
X964124D01*
X965124Y848598D01*
Y849597D01*
X964124Y850597D01*
X965124Y851597D01*
Y852596D01*
X964124Y850597D02*
X962125D01*
X967083Y773602D02*
X968083Y774602D01*
X970082D01*
X971082Y773602D01*
Y769604D01*
X970082Y768604D01*
X968083D01*
X967083Y769604D01*
X965084D02*
X964084Y768604D01*
X962085D01*
X961085Y769604D01*
Y773602D01*
X962085Y774602D01*
X964084D01*
X965084Y773602D01*
Y772603D01*
X964084Y771603D01*
X961085D01*
X1132246Y699498D02*
X1133246Y700498D01*
X1135245D01*
X1136245Y699498D01*
Y695500D01*
X1135245Y694500D01*
X1133246D01*
X1132246Y695500D01*
X1130247Y694500D02*
X1128248D01*
X1129247D01*
Y700498D01*
X1130247Y699498D01*
X1125249D02*
X1124249Y700498D01*
X1122250D01*
X1121250Y699498D01*
Y695500D01*
X1122250Y694500D01*
X1124249D01*
X1125249Y695500D01*
Y699498D01*
X968247Y635248D02*
X969247Y636248D01*
X971246D01*
X972246Y635248D01*
Y631250D01*
X971246Y630250D01*
X969247D01*
X968247Y631250D01*
X966248Y630250D02*
X964248D01*
X965248D01*
Y636248D01*
X966248Y635248D01*
X961249Y630250D02*
X959250D01*
X960250D01*
Y636248D01*
X961249Y635248D01*
X884746Y627748D02*
X885746Y628748D01*
X887745D01*
X888745Y627748D01*
Y623750D01*
X887745Y622750D01*
X885746D01*
X884746Y623750D01*
X882747Y622750D02*
X880748D01*
X881747D01*
Y628748D01*
X882747Y627748D01*
X873750Y622750D02*
X877749D01*
X873750Y626749D01*
Y627748D01*
X874750Y628748D01*
X876749D01*
X877749Y627748D01*
X793496Y838748D02*
X794496Y839748D01*
X796496D01*
X797495Y838748D01*
Y834750D01*
X796496Y833750D01*
X794496D01*
X793496Y834750D01*
X791497Y833750D02*
X789498D01*
X790497D01*
Y839748D01*
X791497Y838748D01*
X786499D02*
X785499Y839748D01*
X783500D01*
X782500Y838748D01*
Y837749D01*
X783500Y836749D01*
X784499D01*
X783500D01*
X782500Y835749D01*
Y834750D01*
X783500Y833750D01*
X785499D01*
X786499Y834750D01*
X885246Y758998D02*
X886246Y759998D01*
X888245D01*
X889245Y758998D01*
Y755000D01*
X888245Y754000D01*
X886246D01*
X885246Y755000D01*
X883247Y754000D02*
X881248D01*
X882247D01*
Y759998D01*
X883247Y758998D01*
X875250Y754000D02*
Y759998D01*
X878249Y756999D01*
X874250D01*
X1061247Y800248D02*
Y794250D01*
X1058248D01*
X1057248Y795250D01*
Y799248D01*
X1058248Y800248D01*
X1061247D01*
X1051250Y794250D02*
X1055249D01*
X1051250Y798249D01*
Y799248D01*
X1052250Y800248D01*
X1054249D01*
X1055249Y799248D01*
X1061247Y626248D02*
Y620250D01*
X1058248D01*
X1057248Y621250D01*
Y625248D01*
X1058248Y626248D01*
X1061247D01*
X1055249Y625248D02*
X1054249Y626248D01*
X1052250D01*
X1051250Y625248D01*
Y624249D01*
X1052250Y623249D01*
X1053249D01*
X1052250D01*
X1051250Y622249D01*
Y621250D01*
X1052250Y620250D01*
X1054249D01*
X1055249Y621250D01*
X1060497Y708248D02*
Y702250D01*
X1057498D01*
X1056498Y703250D01*
Y707248D01*
X1057498Y708248D01*
X1060497D01*
X1051500Y702250D02*
Y708248D01*
X1054499Y705249D01*
X1050500D01*
X739497Y836248D02*
Y830250D01*
X736498D01*
X735498Y831250D01*
Y835248D01*
X736498Y836248D01*
X739497D01*
X729500D02*
X733499D01*
Y833249D01*
X731499Y834249D01*
X730500D01*
X729500Y833249D01*
Y831250D01*
X730500Y830250D01*
X732499D01*
X733499Y831250D01*
X942267Y822748D02*
Y816750D01*
X939268D01*
X938268Y817750D01*
Y821748D01*
X939268Y822748D01*
X942267D01*
X932270D02*
X934269Y821748D01*
X936269Y819749D01*
Y817750D01*
X935269Y816750D01*
X933270D01*
X932270Y817750D01*
Y818749D01*
X933270Y819749D01*
X936269D01*
X769747Y837748D02*
Y831750D01*
X766748D01*
X765748Y832750D01*
Y836748D01*
X766748Y837748D01*
X769747D01*
X763749D02*
X759750D01*
Y836748D01*
X763749Y832750D01*
Y831750D01*
X959247Y610000D02*
Y615998D01*
X956248D01*
X955249Y614998D01*
Y612999D01*
X956248Y611999D01*
X959247D01*
X953249Y610000D02*
X951250D01*
X952250D01*
Y615998D01*
X953249Y614998D01*
X752747Y835500D02*
Y841498D01*
X749748D01*
X748748Y840498D01*
Y838499D01*
X749748Y837499D01*
X752747D01*
X742750Y835500D02*
X746749D01*
X742750Y839499D01*
Y840498D01*
X743750Y841498D01*
X745749D01*
X746749Y840498D01*
X1124247Y814500D02*
Y820498D01*
X1121248D01*
X1120248Y819498D01*
Y817499D01*
X1121248Y816499D01*
X1124247D01*
X1122247D02*
X1120248Y814500D01*
X1114250Y820498D02*
X1118249D01*
Y817499D01*
X1116249Y818499D01*
X1115250D01*
X1114250Y817499D01*
Y815500D01*
X1115250Y814500D01*
X1117249D01*
X1118249Y815500D01*
X1123997Y629000D02*
Y634998D01*
X1120998D01*
X1119998Y633998D01*
Y631999D01*
X1120998Y630999D01*
X1123997D01*
X1121997D02*
X1119998Y629000D01*
X1114000Y634998D02*
X1115999Y633998D01*
X1117999Y631999D01*
Y630000D01*
X1116999Y629000D01*
X1115000D01*
X1114000Y630000D01*
Y630999D01*
X1115000Y631999D01*
X1117999D01*
X1124247Y844500D02*
Y850498D01*
X1121248D01*
X1120248Y849498D01*
Y847499D01*
X1121248Y846499D01*
X1124247D01*
X1122247D02*
X1120248Y844500D01*
X1118249Y850498D02*
X1114250D01*
Y849498D01*
X1118249Y845500D01*
Y844500D01*
X1124497Y659250D02*
Y665248D01*
X1121498D01*
X1120498Y664248D01*
Y662249D01*
X1121498Y661249D01*
X1124497D01*
X1122497D02*
X1120498Y659250D01*
X1118499Y664248D02*
X1117499Y665248D01*
X1115500D01*
X1114500Y664248D01*
Y663249D01*
X1115500Y662249D01*
X1114500Y661249D01*
Y660250D01*
X1115500Y659250D01*
X1117499D01*
X1118499Y660250D01*
Y661249D01*
X1117499Y662249D01*
X1118499Y663249D01*
Y664248D01*
X1117499Y662249D02*
X1115500D01*
X1123997Y725250D02*
Y731248D01*
X1120998D01*
X1119998Y730248D01*
Y728249D01*
X1120998Y727249D01*
X1123997D01*
X1121997D02*
X1119998Y725250D01*
X1117999Y726250D02*
X1116999Y725250D01*
X1115000D01*
X1114000Y726250D01*
Y730248D01*
X1115000Y731248D01*
X1116999D01*
X1117999Y730248D01*
Y729249D01*
X1116999Y728249D01*
X1114000D01*
X1129245Y759000D02*
Y764998D01*
X1126246D01*
X1125246Y763998D01*
Y761999D01*
X1126246Y760999D01*
X1129245D01*
X1127246D02*
X1125246Y759000D01*
X1123247D02*
X1121248D01*
X1122247D01*
Y764998D01*
X1123247Y763998D01*
X1118249D02*
X1117249Y764998D01*
X1115250D01*
X1114250Y763998D01*
Y760000D01*
X1115250Y759000D01*
X1117249D01*
X1118249Y760000D01*
Y763998D01*
X787246Y672250D02*
Y678248D01*
X784247D01*
X783247Y677248D01*
Y675249D01*
X784247Y674249D01*
X787246D01*
X785246D02*
X783247Y672250D01*
X781248D02*
X779248D01*
X780248D01*
Y678248D01*
X781248Y677248D01*
X776249Y672250D02*
X774250D01*
X775250D01*
Y678248D01*
X776249Y677248D01*
X943872Y869628D02*
Y875626D01*
X940873D01*
X939873Y874626D01*
Y872627D01*
X940873Y871627D01*
X943872D01*
X941873D02*
X939873Y869628D01*
X937874D02*
X935875D01*
X936874D01*
Y875626D01*
X937874Y874626D01*
X928877Y869628D02*
X932876D01*
X928877Y873627D01*
Y874626D01*
X929877Y875626D01*
X931876D01*
X932876Y874626D01*
X768010Y777368D02*
Y783366D01*
X765011D01*
X764011Y782366D01*
Y780367D01*
X765011Y779367D01*
X768010D01*
X766011D02*
X764011Y777368D01*
X762012D02*
X760013D01*
X761012D01*
Y783366D01*
X762012Y782366D01*
X757014D02*
X756014Y783366D01*
X754015D01*
X753015Y782366D01*
Y781367D01*
X754015Y780367D01*
X755014D01*
X754015D01*
X753015Y779367D01*
Y778368D01*
X754015Y777368D01*
X756014D01*
X757014Y778368D01*
X942745Y715750D02*
Y721748D01*
X939746D01*
X938746Y720748D01*
Y718749D01*
X939746Y717749D01*
X942745D01*
X940746D02*
X938746Y715750D01*
X936747D02*
X934748D01*
X935747D01*
Y721748D01*
X936747Y720748D01*
X928750Y715750D02*
Y721748D01*
X931749Y718749D01*
X927750D01*
X742482Y777368D02*
Y783366D01*
X739483D01*
X738483Y782366D01*
Y780367D01*
X739483Y779367D01*
X742482D01*
X740483D02*
X738483Y777368D01*
X736484D02*
X734485D01*
X735484D01*
Y783366D01*
X736484Y782366D01*
X727487Y783366D02*
X731486D01*
Y780367D01*
X729486Y781367D01*
X728487D01*
X727487Y780367D01*
Y778368D01*
X728487Y777368D01*
X730486D01*
X731486Y778368D01*
X789178Y726014D02*
Y732012D01*
X786179D01*
X785179Y731012D01*
Y729013D01*
X786179Y728013D01*
X789178D01*
X787179D02*
X785179Y726014D01*
X783180D02*
X781181D01*
X782180D01*
Y732012D01*
X783180Y731012D01*
X774183Y732012D02*
X776182Y731012D01*
X778182Y729013D01*
Y727014D01*
X777182Y726014D01*
X775182D01*
X774183Y727014D01*
Y728013D01*
X775182Y729013D01*
X778182D01*
X765245Y672250D02*
Y678248D01*
X762246D01*
X761246Y677248D01*
Y675249D01*
X762246Y674249D01*
X765245D01*
X763246D02*
X761246Y672250D01*
X759247D02*
X757248D01*
X758247D01*
Y678248D01*
X759247Y677248D01*
X754249Y678248D02*
X750250D01*
Y677248D01*
X754249Y673250D01*
Y672250D01*
X766826Y726014D02*
Y732012D01*
X763827D01*
X762827Y731012D01*
Y729013D01*
X763827Y728013D01*
X766826D01*
X764827D02*
X762827Y726014D01*
X760828D02*
X758829D01*
X759828D01*
Y732012D01*
X760828Y731012D01*
X755830D02*
X754830Y732012D01*
X752831D01*
X751831Y731012D01*
Y730013D01*
X752831Y729013D01*
X751831Y728013D01*
Y727014D01*
X752831Y726014D01*
X754830D01*
X755830Y727014D01*
Y728013D01*
X754830Y729013D01*
X755830Y730013D01*
Y731012D01*
X754830Y729013D02*
X752831D01*
X742495Y672250D02*
Y678248D01*
X739496D01*
X738496Y677248D01*
Y675249D01*
X739496Y674249D01*
X742495D01*
X740496D02*
X738496Y672250D01*
X736497D02*
X734498D01*
X735497D01*
Y678248D01*
X736497Y677248D01*
X731499Y673250D02*
X730499Y672250D01*
X728500D01*
X727500Y673250D01*
Y677248D01*
X728500Y678248D01*
X730499D01*
X731499Y677248D01*
Y676249D01*
X730499Y675249D01*
X727500D01*
X744220Y726014D02*
Y732012D01*
X741221D01*
X740221Y731012D01*
Y729013D01*
X741221Y728013D01*
X744220D01*
X742221D02*
X740221Y726014D01*
X734223D02*
X738222D01*
X734223Y730013D01*
Y731012D01*
X735223Y732012D01*
X737222D01*
X738222Y731012D01*
X732224D02*
X731224Y732012D01*
X729225D01*
X728225Y731012D01*
Y727014D01*
X729225Y726014D01*
X731224D01*
X732224Y727014D01*
Y731012D01*
X819690Y623428D02*
Y629426D01*
X816691D01*
X815691Y628426D01*
Y626427D01*
X816691Y625427D01*
X819690D01*
X817691D02*
X815691Y623428D01*
X809693D02*
X813692D01*
X809693Y627427D01*
Y628426D01*
X810693Y629426D01*
X812692D01*
X813692Y628426D01*
X807694Y623428D02*
X805695D01*
X806694D01*
Y629426D01*
X807694Y628426D01*
X842296Y623428D02*
Y629426D01*
X839297D01*
X838297Y628426D01*
Y626427D01*
X839297Y625427D01*
X842296D01*
X840297D02*
X838297Y623428D01*
X832299D02*
X836298D01*
X832299Y627427D01*
Y628426D01*
X833299Y629426D01*
X835298D01*
X836298Y628426D01*
X826301Y623428D02*
X830300D01*
X826301Y627427D01*
Y628426D01*
X827301Y629426D01*
X829300D01*
X830300Y628426D01*
X864648Y623428D02*
Y629426D01*
X861649D01*
X860649Y628426D01*
Y626427D01*
X861649Y625427D01*
X864648D01*
X862649D02*
X860649Y623428D01*
X854651D02*
X858650D01*
X854651Y627427D01*
Y628426D01*
X855651Y629426D01*
X857650D01*
X858650Y628426D01*
X852652D02*
X851652Y629426D01*
X849653D01*
X848653Y628426D01*
Y627427D01*
X849653Y626427D01*
X850652D01*
X849653D01*
X848653Y625427D01*
Y624428D01*
X849653Y623428D01*
X851652D01*
X852652Y624428D01*
X822745Y834550D02*
Y840548D01*
X819746D01*
X818746Y839548D01*
Y837549D01*
X819746Y836549D01*
X822745D01*
X820745D02*
X818746Y834550D01*
X812748D02*
X816747D01*
X812748Y838549D01*
Y839548D01*
X813748Y840548D01*
X815747D01*
X816747Y839548D01*
X807750Y834550D02*
Y840548D01*
X810749Y837549D01*
X806750D01*
X999997Y874298D02*
Y869300D01*
X998997Y868300D01*
X996998D01*
X995998Y869300D01*
Y874298D01*
X990000Y868300D02*
X993999D01*
X990000Y872299D01*
Y873298D01*
X991000Y874298D01*
X992999D01*
X993999Y873298D01*
X990497Y698248D02*
Y693250D01*
X989497Y692250D01*
X987498D01*
X986498Y693250D01*
Y698248D01*
X984499Y697248D02*
X983499Y698248D01*
X981500D01*
X980500Y697248D01*
Y696249D01*
X981500Y695249D01*
X982499D01*
X981500D01*
X980500Y694249D01*
Y693250D01*
X981500Y692250D01*
X983499D01*
X984499Y693250D01*
X1000497Y780248D02*
Y775250D01*
X999497Y774250D01*
X997498D01*
X996498Y775250D01*
Y780248D01*
X994499Y779248D02*
X993499Y780248D01*
X991500D01*
X990500Y779248D01*
Y778249D01*
X991500Y777249D01*
X990500Y776249D01*
Y775250D01*
X991500Y774250D01*
X993499D01*
X994499Y775250D01*
Y776249D01*
X993499Y777249D01*
X994499Y778249D01*
Y779248D01*
X993499Y777249D02*
X991500D01*
X902996Y654248D02*
Y649250D01*
X901996Y648250D01*
X899997D01*
X898997Y649250D01*
Y654248D01*
X896998Y648250D02*
X894998D01*
X895998D01*
Y654248D01*
X896998Y653248D01*
X891999Y648250D02*
X890000D01*
X891000D01*
Y654248D01*
X891999Y653248D01*
X909247Y777748D02*
X905249Y771750D01*
Y777748D02*
X909247Y771750D01*
X903249D02*
X901250D01*
X902250D01*
Y777748D01*
X903249Y776748D01*
D46*
X837000Y711000D02*
G03*
X837000Y711000I-3000J0D01*
G01*
D70*
X911500Y727000D02*
Y729000D01*
X898500Y727000D02*
Y729000D01*
X911500Y761000D02*
Y763000D01*
X898500Y761000D02*
Y763000D01*
Y727000D02*
X911500D01*
X898500Y763000D02*
X911500D01*
M02*
