G04*
G04 #@! TF.GenerationSoftware,Altium Limited,Altium Designer,20.0.13 (296)*
G04*
G04 Layer_Physical_Order=2*
G04 Layer_Color=36540*
%FSLAX44Y44*%
%MOMM*%
G71*
G01*
G75*
%ADD45C,0.5000*%
%ADD46C,0.6000*%
%ADD50C,0.6000*%
G36*
X1174232Y873250D02*
X1174653Y873250D01*
X1175477Y873086D01*
X1176254Y872764D01*
X1176953Y872297D01*
X1177250Y872000D01*
X1178142Y871108D01*
X1179543Y869011D01*
X1180508Y866681D01*
X1181000Y864208D01*
X1181000Y862947D01*
X1181000Y838750D01*
X989018D01*
X989018Y838750D01*
X988599Y838729D01*
X987779Y838566D01*
X987006Y838246D01*
X986310Y837781D01*
X986000Y837500D01*
X985944Y837438D01*
X985851Y837299D01*
X985787Y837144D01*
X985754Y836980D01*
X985750Y836896D01*
Y699528D01*
X985750Y699528D01*
X985750Y697679D01*
X985028Y694051D01*
X983613Y690633D01*
X981558Y687558D01*
X980250Y686250D01*
X979953Y685953D01*
X979254Y685486D01*
X978477Y685164D01*
X977653Y685000D01*
X950000D01*
X949465Y685535D01*
X948624Y686793D01*
X948045Y688191D01*
X947750Y689675D01*
X947750Y690432D01*
Y873250D01*
X1174232D01*
X1174232Y873250D01*
D02*
G37*
G36*
X1045250Y700000D02*
X1045250Y632614D01*
X1045405Y631454D01*
X1046052Y629206D01*
X1047124Y627128D01*
X1048582Y625299D01*
X1049438Y624500D01*
X1049438D01*
X1178499Y624500D01*
X1179130Y624239D01*
X1180265Y623481D01*
X1181230Y622516D01*
X1181989Y621380D01*
X1182250Y620750D01*
X1182250Y620750D01*
X1182250Y595785D01*
X1182149Y594938D01*
X1181619Y593314D01*
X1180782Y591825D01*
X1179671Y590528D01*
X1179000Y590000D01*
X1179000Y590000D01*
X1027768Y589750D01*
X1026721Y589750D01*
X1024667Y590159D01*
X1022732Y590960D01*
X1020990Y592123D01*
X1020250Y592864D01*
Y592864D01*
X1020250Y700000D01*
X1045250Y700000D01*
D02*
G37*
D45*
X952814Y729564D02*
X956000Y732750D01*
X957500D01*
X848408Y729564D02*
X952814D01*
X834094Y715250D02*
X848408Y729564D01*
X789107Y715250D02*
X834094D01*
X780357Y724000D02*
X789107Y715250D01*
X1151500Y743000D02*
X1154500Y740000D01*
X1024250Y743000D02*
X1151500D01*
X1001750Y683750D02*
Y720500D01*
X1024250Y743000D01*
X976750Y658750D02*
X1001750Y683750D01*
X825750Y658750D02*
X976750D01*
X784000Y700500D02*
X825750Y658750D01*
X772016Y700500D02*
X784000D01*
X753061Y719455D02*
X772016Y700500D01*
X1027250Y649250D02*
X1028500Y650500D01*
X1032000D01*
X820750Y649250D02*
X1027250D01*
X780500Y689500D02*
X820750Y649250D01*
X763250Y689500D02*
X780500D01*
X728250Y724500D02*
X763250Y689500D01*
D46*
X1106500Y775250D02*
X1132500Y801250D01*
X1014250Y775250D02*
X1106500D01*
D50*
X728250Y724500D02*
D03*
X780357Y724000D02*
D03*
X753061Y719455D02*
D03*
X960250Y695750D02*
D03*
X973000Y689500D02*
D03*
X966750D02*
D03*
X960500D02*
D03*
X966500Y695750D02*
D03*
X972750D02*
D03*
X954000Y695500D02*
D03*
X954250Y689250D02*
D03*
X953751Y701750D02*
D03*
X972501Y702001D02*
D03*
X966251D02*
D03*
X960001D02*
D03*
X1023500Y695000D02*
D03*
X1029750D02*
D03*
X1036000D02*
D03*
X1036250Y688750D02*
D03*
X1030000D02*
D03*
X1023750D02*
D03*
X1024000Y682500D02*
D03*
X1030250D02*
D03*
X1036500D02*
D03*
X1014250Y775250D02*
D03*
X1132500Y801250D02*
D03*
X1155500Y617750D02*
D03*
X1165250Y618000D02*
D03*
X1174500Y618250D02*
D03*
X1174750Y608250D02*
D03*
X1165500Y608000D02*
D03*
X1155750Y607750D02*
D03*
Y597000D02*
D03*
X1165500Y597250D02*
D03*
X1174750Y597500D02*
D03*
X1155250Y740000D02*
D03*
X1153500Y865250D02*
D03*
X1163250Y865500D02*
D03*
X1172500Y865750D02*
D03*
X1172750Y855750D02*
D03*
X1163500Y855500D02*
D03*
X1153750Y855250D02*
D03*
Y844500D02*
D03*
X1163500Y844750D02*
D03*
X1172750Y845000D02*
D03*
M02*
