M48
;Layer_Color=9474304
;FILE_FORMAT=4:4
METRIC,LZ
;TYPE=PLATED
T1F00S00C0.3000
%
T01
X0083025Y006295
X00843Y0063
X008755Y0063325
X0091375Y00641
X009355Y006295
X0095425Y0068925
X009605Y006895
X0096675
X00973
X0097275Y0069575
X009665
X0096025
X00960001Y00702001
X00966251
X00972501
X00953751Y0070175
X00954Y006955
X009115Y00694
Y00702
Y0071
Y00686
X00901Y00745
X00909294Y00774788
X0101425Y0077525
X0100925Y007625
X01017593Y00756157
X010235Y00695
X0102975
X01036
X0103625Y0068875
X0103
X0102375
X01024Y006825
X0103025
X010365
X0106325Y006695
X0106175Y006405
X01091Y006475
X0113375Y006325
X011555Y0061775
X0116525Y00618
X011745Y0061825
X0117475Y0060825
X011655Y00608
X0115575Y0060775
Y00597
X011655Y0059725
X0117475Y005975
X011745Y0071975
X0116525Y007195
X011555Y0071925
Y0073
X0116525Y0073025
X011745Y007305
X0117425Y007405
X01165Y0074025
X0115525Y0074
X011185Y0075375
X010935Y0078825
X0106025Y00719
X01014Y006605
X0112673Y00673572
X0082875Y0067
Y00678
Y00686
X0084375Y0069375
X00844Y0070225
X00842836Y0071115
X008125Y007385
X0079925Y0072575
X0078825Y007315
X00780357Y00724
X0076825Y007255
X00753061Y00719455
X0072825Y007245
X0073525Y0067275
X007575Y0067325
X00722635Y0062975
X0072275Y0061625
X0071325
X007035Y00616
X0069425Y0061575
X006845Y006155
X0068475Y006055
X006945Y0060575
X0070375Y00606
X007135Y0060625
X00723
Y005955
X007135
X0070375Y0059525
X006945Y00595
X0068475Y0059475
X007815Y0076175
X007925
Y0077275
X007815
X007815Y0078375
X007925
X00754715Y00831719
X00744286Y00831541
X007235Y00846
X00714
X0070425Y0084575
X00695Y008455
X0068525Y0084525
Y00856
X00695Y0085625
X0070425Y008565
X00714Y0085675
X007235
X0072325Y0086675
X0071375
X00704Y008665
X0069475Y0086625
X00685Y00866
X0089625Y00822
X0090475
X0101225Y00795
X01021245Y00795028
X01120968Y00801032
X0115375Y008445
X011635Y0084475
X0117275Y00845
Y0085575
X011635Y008555
X0115375Y0085525
X011535Y0086525
X0116325Y008655
X011725Y0086575
M30
