G04*
G04 #@! TF.GenerationSoftware,Altium Limited,Altium Designer,20.0.13 (296)*
G04*
G04 Layer_Color=16711935*
%FSLAX44Y44*%
%MOMM*%
G71*
G01*
G75*
%ADD16C,0.1000*%
%ADD71C,0.0508*%
D16*
X1015000Y650500D02*
G03*
X1015000Y650500I-5000J0D01*
G01*
X1016500Y730000D02*
G03*
X1016500Y730000I-5000J0D01*
G01*
X1016750Y824250D02*
G03*
X1016750Y824250I-5000J0D01*
G01*
X834000Y716000D02*
G03*
X834000Y716000I-5000J0D01*
G01*
X781000Y788750D02*
G03*
X781000Y788750I-5000J0D01*
G01*
X1001000Y641500D02*
Y691500D01*
X1041000Y641500D02*
Y691500D01*
X1001000Y641500D02*
X1041000D01*
X1001000Y691500D02*
X1041000D01*
X1002500Y721000D02*
Y771000D01*
X1042500Y721000D02*
Y771000D01*
X1002500Y721000D02*
X1042500D01*
X1002500Y771000D02*
X1042500D01*
X1002750Y815250D02*
Y865250D01*
X1042750Y815250D02*
Y865250D01*
X1002750Y815250D02*
X1042750D01*
X1002750Y865250D02*
X1042750D01*
X820000Y725000D02*
X890000D01*
X820000Y655000D02*
X890000D01*
X820000D02*
Y725000D01*
X890000Y655000D02*
Y725000D01*
X767000Y747750D02*
X807000D01*
X767000Y797750D02*
X807000D01*
Y747750D02*
Y797750D01*
X767000Y747750D02*
Y797750D01*
X861750Y786250D02*
Y800250D01*
X883250Y786250D02*
Y800250D01*
X861750D02*
X883250D01*
X861750Y786250D02*
X883250D01*
X734250Y663750D02*
Y732250D01*
X809250Y663750D02*
Y732250D01*
X734250D02*
X809250D01*
X734250Y663750D02*
X809250D01*
X1005750Y804750D02*
X1034250D01*
X1005750Y787750D02*
X1034250D01*
Y804750D01*
X1005750Y787750D02*
Y804750D01*
X766500Y634000D02*
Y647500D01*
X744500Y634000D02*
Y647500D01*
Y634000D02*
X766500D01*
X744500Y647500D02*
X766500Y647500D01*
X766750Y827500D02*
X800750D01*
X766750Y809500D02*
X800750Y809500D01*
X766750Y809500D02*
Y827500D01*
X800750D02*
X800750Y809500D01*
X729250Y761250D02*
Y783250D01*
X743250Y761250D02*
Y783250D01*
X729250Y761250D02*
X743250D01*
X729250Y783250D02*
X743250Y783250D01*
X1077000Y780500D02*
Y798500D01*
X1111000Y780500D02*
Y798500D01*
X1077000Y780500D02*
X1111000D01*
X1077000Y798500D02*
X1111000D01*
X1077000Y588000D02*
Y606000D01*
X1111000Y588000D02*
Y606000D01*
X1077000Y588000D02*
X1111000D01*
X1077000Y606000D02*
X1111000D01*
X956000Y834000D02*
X974000D01*
X956000Y800000D02*
X974000D01*
X956000D02*
Y834000D01*
X974000Y800000D02*
Y834000D01*
X956000Y755000D02*
X974000D01*
X956000Y721000D02*
X974000D01*
X956000D02*
Y755000D01*
X974000Y721000D02*
Y755000D01*
X1077000Y687500D02*
Y705500D01*
X1111000Y687500D02*
Y705500D01*
X1077000Y687500D02*
X1111000D01*
X1077000Y705500D02*
X1111000D01*
X956000Y680000D02*
X974000D01*
X956000Y646000D02*
X974000D01*
X956000D02*
Y680000D01*
X974000Y646000D02*
Y680000D01*
X873000Y612500D02*
X887000D01*
X873000Y590500D02*
X887000D01*
X873000D02*
Y612500D01*
X887000Y590500D02*
Y612500D01*
X782250Y823820D02*
X796250D01*
X782250Y801820D02*
X796250D01*
X782250D02*
Y823820D01*
X796250Y801820D02*
Y823820D01*
X865500Y750500D02*
Y764500D01*
X843500Y750500D02*
Y764500D01*
X865500D01*
X843500Y750500D02*
X865500D01*
X1005750Y614000D02*
Y631000D01*
X1034250Y614000D02*
Y631000D01*
X1005750Y614000D02*
X1034250D01*
X1005750Y631000D02*
X1034250D01*
X1005750Y696250D02*
Y713250D01*
X1034250Y696250D02*
Y713250D01*
X1005750Y696250D02*
X1034250D01*
X1005750Y713250D02*
X1034250D01*
X726730Y796500D02*
Y818500D01*
X740230Y796500D02*
Y818500D01*
X726730D02*
X740230D01*
X726730Y796500D02*
X740230D01*
X941770Y780000D02*
Y802000D01*
X928270Y780000D02*
Y802000D01*
Y780000D02*
X941770D01*
X928270Y802000D02*
X941770D01*
X753500Y796500D02*
Y818500D01*
X767000Y796500D02*
Y818500D01*
X753500D02*
X767000D01*
X753500Y796500D02*
X767000D01*
X1081750Y824500D02*
X1103250D01*
X1081750Y810500D02*
X1103250D01*
Y824500D01*
X1081750Y810500D02*
Y824500D01*
X1081750Y639500D02*
X1103250D01*
X1081750Y625500D02*
X1103250D01*
Y639500D01*
X1081750Y625500D02*
Y639500D01*
Y854500D02*
X1103250D01*
X1081750Y840500D02*
X1103250D01*
Y854500D01*
X1081750Y840500D02*
Y854500D01*
X1082000Y669000D02*
X1103500D01*
X1082000Y655000D02*
X1103500D01*
Y669000D01*
X1082000Y655000D02*
Y669000D01*
X1081750Y734500D02*
X1103250D01*
X1081750Y720500D02*
X1103250D01*
Y734500D01*
X1081750Y720500D02*
Y734500D01*
Y764500D02*
X1103250D01*
X1081750Y750500D02*
X1103250D01*
Y764500D01*
X1081750Y750500D02*
Y764500D01*
X773250Y639750D02*
Y661250D01*
X787250Y639750D02*
Y661250D01*
X773250D02*
X787250D01*
X773250Y639750D02*
X787250D01*
X927500Y834500D02*
Y856000D01*
X941500Y834500D02*
Y856000D01*
X927500D02*
X941500D01*
X927500Y834500D02*
X941500D01*
X753500Y745250D02*
Y766750D01*
X767500Y745250D02*
Y766750D01*
X753500D02*
X767500D01*
X753500Y745250D02*
X767500D01*
X941500Y733500D02*
Y755000D01*
X927500Y733500D02*
Y755000D01*
Y733500D02*
X941500D01*
X927500Y755000D02*
X941500D01*
X728000Y745250D02*
Y766750D01*
X742000Y745250D02*
Y766750D01*
X728000D02*
X742000D01*
X728000Y745250D02*
X742000D01*
X773000Y691000D02*
Y712500D01*
X787000Y691000D02*
Y712500D01*
X773000D02*
X787000D01*
X773000Y691000D02*
X787000D01*
X750750Y639750D02*
Y661250D01*
X764750Y639750D02*
Y661250D01*
X750750D02*
X764750D01*
X750750Y639750D02*
X764750D01*
X750500Y691000D02*
Y712500D01*
X764500Y691000D02*
Y712500D01*
X750500D02*
X764500D01*
X750500Y691000D02*
X764500D01*
X728250Y639750D02*
Y661250D01*
X742250Y639750D02*
Y661250D01*
X728250D02*
X742250D01*
X728250Y639750D02*
X742250D01*
X728000Y691000D02*
Y712500D01*
X742000Y691000D02*
Y712500D01*
X728000D02*
X742000D01*
X728000Y691000D02*
X742000D01*
X805500Y591250D02*
Y612750D01*
X819500Y591250D02*
Y612750D01*
X805500D02*
X819500D01*
X805500Y591250D02*
X819500D01*
X828000D02*
Y612750D01*
X842000Y591250D02*
Y612750D01*
X828000D02*
X842000D01*
X828000Y591250D02*
X842000D01*
X850500D02*
Y612750D01*
X864500Y591250D02*
Y612750D01*
X850500D02*
X864500D01*
X850500Y591250D02*
X864500D01*
X807750Y801550D02*
Y823050D01*
X821750Y801550D02*
Y823050D01*
X807750D02*
X821750D01*
X807750Y801550D02*
X821750D01*
X882250Y820000D02*
Y834000D01*
X860250Y820000D02*
Y834000D01*
Y820000D02*
X882250D01*
X860250Y834000D02*
X882250D01*
X883750Y752250D02*
Y766250D01*
X861750Y752250D02*
Y766250D01*
Y752250D02*
X883750D01*
X861750Y766250D02*
X883750Y766250D01*
X858250Y638000D02*
Y656000D01*
X892250Y638000D02*
Y656000D01*
X858250D02*
X892250D01*
X858250Y638000D02*
X892250D01*
X795250Y647750D02*
X816750D01*
X795250Y633750D02*
X816750D01*
X795250Y647750D02*
X795250Y633750D01*
X816750D02*
Y647750D01*
X863250Y676750D02*
X884750D01*
X863250Y690750D02*
X884750D01*
Y676750D02*
Y690750D01*
X863250Y676750D02*
Y690750D01*
Y713250D02*
X884750D01*
X863250Y727250D02*
X884750D01*
Y713250D02*
Y727250D01*
X863250Y713250D02*
Y727250D01*
D71*
X916722Y873020D02*
X983778Y873020D01*
X916722Y768880D02*
X983778Y768880D01*
X916722Y768880D02*
Y873020D01*
X983778Y768880D02*
Y873020D01*
X1056028Y768880D02*
Y873020D01*
X988972Y768880D02*
Y873020D01*
Y768880D02*
X1056028D01*
X988972Y873020D02*
X1056028D01*
X984028Y637900D02*
Y742040D01*
X916972Y637900D02*
X916972Y742040D01*
X916972Y637900D02*
X984028D01*
X916972Y742040D02*
X984028D01*
X1056278Y637900D02*
Y742040D01*
X989222Y637900D02*
Y742040D01*
Y637900D02*
X1056278D01*
X989222Y742040D02*
X1056278D01*
X1128028Y768880D02*
Y873020D01*
X1060972Y768880D02*
Y873020D01*
Y768880D02*
X1128028D01*
X1060972Y873020D02*
X1128028D01*
X1131138Y637900D02*
Y742040D01*
X1064082Y637900D02*
Y742040D01*
Y637900D02*
X1131138D01*
X1064082Y742040D02*
X1131138D01*
M02*
