G04*
G04 #@! TF.GenerationSoftware,Altium Limited,Altium Designer,20.0.13 (296)*
G04*
G04 Layer_Color=16711935*
%FSLAX44Y44*%
%MOMM*%
G71*
G01*
G75*
%ADD35O,1.8532X0.8532*%
%ADD36R,1.4032X1.6032*%
%ADD39R,1.5032X2.0032*%
%ADD40R,1.6032X1.5032*%
G04:AMPARAMS|DCode=41|XSize=4.2032mm|YSize=4.2032mm|CornerRadius=1.1016mm|HoleSize=0mm|Usage=FLASHONLY|Rotation=90.000|XOffset=0mm|YOffset=0mm|HoleType=Round|Shape=RoundedRectangle|*
%AMROUNDEDRECTD41*
21,1,4.2032,2.0000,0,0,90.0*
21,1,2.0000,4.2032,0,0,90.0*
1,1,2.2032,1.0000,1.0000*
1,1,2.2032,1.0000,-1.0000*
1,1,2.2032,-1.0000,-1.0000*
1,1,2.2032,-1.0000,1.0000*
%
%ADD41ROUNDEDRECTD41*%
G04:AMPARAMS|DCode=42|XSize=4.2032mm|YSize=6.2032mm|CornerRadius=1.1016mm|HoleSize=0mm|Usage=FLASHONLY|Rotation=90.000|XOffset=0mm|YOffset=0mm|HoleType=Round|Shape=RoundedRectangle|*
%AMROUNDEDRECTD42*
21,1,4.2032,4.0000,0,0,90.0*
21,1,2.0000,6.2032,0,0,90.0*
1,1,2.2032,2.0000,1.0000*
1,1,2.2032,2.0000,-1.0000*
1,1,2.2032,-2.0000,-1.0000*
1,1,2.2032,-2.0000,1.0000*
%
%ADD42ROUNDEDRECTD42*%
%ADD43R,1.5032X1.6032*%
%ADD44C,0.8032*%
%ADD61R,2.1032X0.6032*%
%ADD62O,0.7532X1.7032*%
%ADD63O,1.7032X0.7532*%
%ADD64O,1.0032X1.7032*%
G04:AMPARAMS|DCode=65|XSize=1.0032mm|YSize=1.2032mm|CornerRadius=0.2016mm|HoleSize=0mm|Usage=FLASHONLY|Rotation=270.000|XOffset=0mm|YOffset=0mm|HoleType=Round|Shape=RoundedRectangle|*
%AMROUNDEDRECTD65*
21,1,1.0032,0.8000,0,0,270.0*
21,1,0.6000,1.2032,0,0,270.0*
1,1,0.4032,-0.4000,-0.3000*
1,1,0.4032,-0.4000,0.3000*
1,1,0.4032,0.4000,0.3000*
1,1,0.4032,0.4000,-0.3000*
%
%ADD65ROUNDEDRECTD65*%
%ADD66R,2.7032X2.7032*%
%ADD67R,2.0032X1.5032*%
%ADD68R,1.4032X1.4032*%
%ADD69R,1.6032X1.4032*%
D35*
X992750Y647450D02*
D03*
Y660150D02*
D03*
Y672850D02*
D03*
Y685550D02*
D03*
X1049250Y647450D02*
D03*
Y660150D02*
D03*
Y672850D02*
D03*
Y685550D02*
D03*
X994250Y726950D02*
D03*
Y739650D02*
D03*
Y752350D02*
D03*
Y765050D02*
D03*
X1050750Y726950D02*
D03*
Y739650D02*
D03*
Y752350D02*
D03*
Y765050D02*
D03*
X994500Y821200D02*
D03*
Y833900D02*
D03*
Y846600D02*
D03*
Y859300D02*
D03*
X1051000Y821200D02*
D03*
Y833900D02*
D03*
Y846600D02*
D03*
Y859300D02*
D03*
D36*
X1101500Y817500D02*
D03*
X1083500D02*
D03*
X1101500Y632500D02*
D03*
X1083500D02*
D03*
X1101500Y847500D02*
D03*
X1083500D02*
D03*
X1101750Y662000D02*
D03*
X1083750D02*
D03*
X1101500Y727500D02*
D03*
X1083500D02*
D03*
X1101500Y757500D02*
D03*
X1083500D02*
D03*
D39*
X1079500Y789500D02*
D03*
X1108500D02*
D03*
X1079500Y597000D02*
D03*
X1108500D02*
D03*
X1079500Y696500D02*
D03*
X1108500D02*
D03*
D40*
X880000Y609500D02*
D03*
Y593500D02*
D03*
X789250Y820820D02*
D03*
Y804820D02*
D03*
D41*
X1162750Y854750D02*
D03*
X1164500Y729500D02*
D03*
X1164750Y607250D02*
D03*
D42*
X703750Y604750D02*
D03*
X704250Y855250D02*
D03*
D43*
X862500Y757500D02*
D03*
X846500D02*
D03*
D44*
X1061750Y640500D02*
D03*
X1063250Y669500D02*
D03*
X792500Y761750D02*
D03*
X781500D02*
D03*
Y772750D02*
D03*
X792500D02*
D03*
Y783750D02*
D03*
X781500D02*
D03*
D61*
X905000Y733000D02*
D03*
Y745000D02*
D03*
Y757000D02*
D03*
D62*
X827000Y732500D02*
D03*
X835000D02*
D03*
X843000D02*
D03*
X851000D02*
D03*
X859000D02*
D03*
X867000D02*
D03*
X875000D02*
D03*
X883000D02*
D03*
Y647500D02*
D03*
X875000D02*
D03*
X867000D02*
D03*
X859000D02*
D03*
X851000D02*
D03*
X843000D02*
D03*
X835000D02*
D03*
X827000D02*
D03*
D63*
X897500Y718000D02*
D03*
Y710000D02*
D03*
Y702000D02*
D03*
Y694000D02*
D03*
Y686000D02*
D03*
Y678000D02*
D03*
Y670000D02*
D03*
Y662000D02*
D03*
X812500D02*
D03*
Y670000D02*
D03*
Y678000D02*
D03*
Y686000D02*
D03*
Y694000D02*
D03*
Y702000D02*
D03*
Y710000D02*
D03*
Y718000D02*
D03*
D64*
X810000Y853500D02*
D03*
X795000D02*
D03*
X780000D02*
D03*
X765000D02*
D03*
X750000D02*
D03*
X940000Y612500D02*
D03*
X925000D02*
D03*
X910000D02*
D03*
D65*
X1001500Y796250D02*
D03*
X1038500D02*
D03*
Y622500D02*
D03*
X1001500D02*
D03*
X1038500Y704750D02*
D03*
X1001500D02*
D03*
D66*
X902500Y852500D02*
D03*
Y792500D02*
D03*
X842500D02*
D03*
Y852500D02*
D03*
D67*
X965000Y831500D02*
D03*
Y802500D02*
D03*
Y752500D02*
D03*
Y723500D02*
D03*
Y677500D02*
D03*
Y648500D02*
D03*
D68*
X733480Y818000D02*
D03*
Y797000D02*
D03*
X935020Y780500D02*
D03*
Y801500D02*
D03*
X760250Y818000D02*
D03*
Y797000D02*
D03*
D69*
X780250Y659500D02*
D03*
Y641500D02*
D03*
X934500Y854250D02*
D03*
Y836250D02*
D03*
X760500Y765000D02*
D03*
Y747000D02*
D03*
X934500Y735250D02*
D03*
Y753250D02*
D03*
X735000Y765000D02*
D03*
Y747000D02*
D03*
X780000Y710750D02*
D03*
Y692750D02*
D03*
X757750Y659500D02*
D03*
Y641500D02*
D03*
X757500Y710750D02*
D03*
Y692750D02*
D03*
X735250Y659500D02*
D03*
Y641500D02*
D03*
X735000Y710750D02*
D03*
Y692750D02*
D03*
X812500Y611000D02*
D03*
Y593000D02*
D03*
X835000Y611000D02*
D03*
Y593000D02*
D03*
X857500Y611000D02*
D03*
Y593000D02*
D03*
X814750Y821300D02*
D03*
Y803300D02*
D03*
M02*
