G04*
G04 #@! TF.GenerationSoftware,Altium Limited,Altium Designer,20.0.13 (296)*
G04*
G04 Layer_Physical_Order=3*
G04 Layer_Color=16440176*
%FSLAX44Y44*%
%MOMM*%
G71*
G01*
G75*
%ADD14C,0.2540*%
%ADD45C,0.5000*%
%ADD46C,0.6000*%
%ADD50C,0.6000*%
D14*
X829250Y629500D02*
X829500Y629250D01*
X829000Y629500D02*
X829500Y629000D01*
D45*
X1061691Y640691D02*
X1061750Y640750D01*
X1061288Y640691D02*
X1061691D01*
X1061229Y640750D02*
X1061288Y640691D01*
X1014750Y640750D02*
X1061229D01*
X1002750Y652750D02*
X1014750Y640750D01*
X1002750Y652750D02*
Y663000D01*
X1009250Y669500D01*
X1063250D01*
X1014000Y660500D02*
X1014191Y660691D01*
X1014898D01*
X1014957Y660750D02*
X1114025D01*
X1014898Y660691D02*
X1014957Y660750D01*
X1126730Y673455D02*
Y673572D01*
X1114025Y660750D02*
X1126730Y673455D01*
X722635Y629750D02*
X727000Y634115D01*
Y704000D02*
X762000Y739000D01*
X727000Y634115D02*
Y704000D01*
X911500Y694000D02*
X911691Y694191D01*
X917691D01*
X1009686Y748250D02*
X1017593Y756157D01*
X989500Y748250D02*
X1009686D01*
X843750Y693750D02*
X844000Y694000D01*
X823500Y693750D02*
X843750D01*
X799441Y717809D02*
X823500Y693750D01*
X799250Y725750D02*
X799441Y725559D01*
Y717809D02*
Y725559D01*
X1015500Y802750D02*
X1021053Y797197D01*
X991000Y795000D02*
X1012250D01*
X982500Y802750D02*
X1015500D01*
X1021053Y795303D02*
Y797197D01*
X911500Y731750D02*
X982500Y802750D01*
X917691Y694191D02*
X986000Y762500D01*
X1009000D01*
X927000Y685750D02*
X989500Y748250D01*
X911750Y685750D02*
X927000D01*
X914607Y702500D02*
X924000Y711893D01*
X911000Y702500D02*
X914607D01*
X911500Y710000D02*
Y731750D01*
X924000Y711893D02*
Y728000D01*
X991000Y795000D01*
X1021000Y795250D02*
X1021053Y795303D01*
X896250Y818500D02*
Y822000D01*
X884250Y806500D02*
X896250Y818500D01*
X884250Y692500D02*
Y806500D01*
X859750Y716000D02*
Y806750D01*
X846500Y820000D02*
X859750Y806750D01*
X749000Y820000D02*
X846500D01*
X861750Y670000D02*
X884250Y692500D01*
X828750Y670000D02*
X861750D01*
X843000Y711000D02*
X843150Y711150D01*
X854900D01*
X859750Y716000D01*
X744286Y831541D02*
X744478Y831349D01*
Y824522D02*
Y831349D01*
Y824522D02*
X749000Y820000D01*
X768250Y725500D02*
X815750Y678000D01*
X828750D01*
X818309Y686191D02*
X828941D01*
X829000Y686250D01*
X788250Y716250D02*
X818309Y686191D01*
X788250Y716250D02*
Y731500D01*
X762000Y739000D02*
X812750D01*
X743750Y662750D02*
X753750D01*
X735750Y670750D02*
Y672750D01*
Y670750D02*
X743750Y662750D01*
X753750D02*
X794500Y622000D01*
X835000D01*
X843000Y630000D01*
X801000Y629750D02*
X829750D01*
X757500Y673250D02*
X801000Y629750D01*
D46*
X940500Y775750D02*
X978000Y813250D01*
X939000Y775750D02*
X940500D01*
X909294Y774788D02*
X938038D01*
X939000Y775750D01*
X1007250Y632500D02*
X1133750D01*
X993000Y646750D02*
X1007250Y632500D01*
X993000Y646750D02*
Y684000D01*
X1071537Y775287D02*
X1095537D01*
X913750Y641000D02*
X937250D01*
X1071537Y775287D01*
X1020000Y711000D02*
X1128985D01*
X993000Y684000D02*
X1020000Y711000D01*
X844750Y701750D02*
X845814Y702814D01*
X865799D01*
X1093250Y788500D02*
Y800500D01*
X1080500Y813250D02*
X1093250Y800500D01*
X978000Y813250D02*
X1080500D01*
X1095537Y775287D02*
X1121250Y801000D01*
X1128985Y711000D02*
X1132500Y714515D01*
X893000Y645750D02*
X909250Y629500D01*
X893000Y645750D02*
Y686250D01*
X909250Y629500D02*
X935500D01*
X904750Y813250D02*
Y822000D01*
X893000Y801500D02*
X904750Y813250D01*
X893000Y686750D02*
Y801500D01*
X852031Y831719D02*
X872000Y811750D01*
X754715Y831719D02*
X852031D01*
X872000Y709015D02*
Y811750D01*
X865799Y702814D02*
X872000Y709015D01*
X1132500Y714515D02*
Y801250D01*
D50*
X1014000Y660500D02*
D03*
X1061750Y640500D02*
D03*
X1063250Y669500D02*
D03*
X1126730Y673572D02*
D03*
X909294Y774788D02*
D03*
X911500Y694000D02*
D03*
Y686000D02*
D03*
X1017593Y756157D02*
D03*
X799250Y725750D02*
D03*
X844000Y702250D02*
D03*
X1012250Y795000D02*
D03*
X1093500Y788250D02*
D03*
X911500Y710000D02*
D03*
Y702000D02*
D03*
X1009250Y762500D02*
D03*
X1120968Y801032D02*
D03*
X913750Y641000D02*
D03*
X896250Y822000D02*
D03*
X904750D02*
D03*
X935500Y629500D02*
D03*
X842836Y711150D02*
D03*
X754715Y831719D02*
D03*
X744286Y831541D02*
D03*
X1132500Y801250D02*
D03*
X1133750Y632500D02*
D03*
X1021245Y795028D02*
D03*
X768250Y725500D02*
D03*
X788250Y731500D02*
D03*
X735250Y672750D02*
D03*
X722635Y629750D02*
D03*
X830250Y629500D02*
D03*
X843000Y630000D02*
D03*
X757500Y673250D02*
D03*
X828750Y670000D02*
D03*
Y678000D02*
D03*
Y686000D02*
D03*
X843750Y693750D02*
D03*
X812500Y738500D02*
D03*
M02*
