G04*
G04 #@! TF.GenerationSoftware,Altium Limited,Altium Designer,20.0.13 (296)*
G04*
G04 Layer_Color=255*
%FSLAX44Y44*%
%MOMM*%
G71*
G01*
G75*
G04:AMPARAMS|DCode=17|XSize=1.27mm|YSize=2.032mm|CornerRadius=0.254mm|HoleSize=0mm|Usage=FLASHONLY|Rotation=0.000|XOffset=0mm|YOffset=0mm|HoleType=Round|Shape=RoundedRectangle|*
%AMROUNDEDRECTD17*
21,1,1.2700,1.5240,0,0,0.0*
21,1,0.7620,2.0320,0,0,0.0*
1,1,0.5080,0.3810,-0.7620*
1,1,0.5080,-0.3810,-0.7620*
1,1,0.5080,-0.3810,0.7620*
1,1,0.5080,0.3810,0.7620*
%
%ADD17ROUNDEDRECTD17*%
G04:AMPARAMS|DCode=18|XSize=6.096mm|YSize=6.858mm|CornerRadius=1.2192mm|HoleSize=0mm|Usage=FLASHONLY|Rotation=0.000|XOffset=0mm|YOffset=0mm|HoleType=Round|Shape=RoundedRectangle|*
%AMROUNDEDRECTD18*
21,1,6.0960,4.4196,0,0,0.0*
21,1,3.6576,6.8580,0,0,0.0*
1,1,2.4384,1.8288,-2.2098*
1,1,2.4384,-1.8288,-2.2098*
1,1,2.4384,-1.8288,2.2098*
1,1,2.4384,1.8288,2.2098*
%
%ADD18ROUNDEDRECTD18*%
%ADD19R,2.5600X3.4500*%
%ADD20O,1.6500X0.6500*%
%ADD21R,1.2000X1.4000*%
%ADD22R,3.2000X3.1500*%
%ADD23R,1.2000X1.2000*%
%ADD24R,1.3000X1.8000*%
%ADD25R,1.4000X1.3000*%
G04:AMPARAMS|DCode=26|XSize=4mm|YSize=4mm|CornerRadius=1mm|HoleSize=0mm|Usage=FLASHONLY|Rotation=90.000|XOffset=0mm|YOffset=0mm|HoleType=Round|Shape=RoundedRectangle|*
%AMROUNDEDRECTD26*
21,1,4.0000,2.0000,0,0,90.0*
21,1,2.0000,4.0000,0,0,90.0*
1,1,2.0000,1.0000,1.0000*
1,1,2.0000,1.0000,-1.0000*
1,1,2.0000,-1.0000,-1.0000*
1,1,2.0000,-1.0000,1.0000*
%
%ADD26ROUNDEDRECTD26*%
G04:AMPARAMS|DCode=27|XSize=4mm|YSize=6mm|CornerRadius=1mm|HoleSize=0mm|Usage=FLASHONLY|Rotation=90.000|XOffset=0mm|YOffset=0mm|HoleType=Round|Shape=RoundedRectangle|*
%AMROUNDEDRECTD27*
21,1,4.0000,4.0000,0,0,90.0*
21,1,2.0000,6.0000,0,0,90.0*
1,1,2.0000,2.0000,1.0000*
1,1,2.0000,2.0000,-1.0000*
1,1,2.0000,-2.0000,-1.0000*
1,1,2.0000,-2.0000,1.0000*
%
%ADD27ROUNDEDRECTD27*%
%ADD28R,1.3000X1.4000*%
D17*
X927390Y775230D02*
D03*
X973110D02*
D03*
X1045360D02*
D03*
X999640D02*
D03*
X973360Y644250D02*
D03*
X927640Y644250D02*
D03*
X1045610Y644250D02*
D03*
X999890D02*
D03*
X1117360Y775230D02*
D03*
X1071640D02*
D03*
X1120470Y644250D02*
D03*
X1074750D02*
D03*
D18*
X950250Y840000D02*
D03*
X1022500D02*
D03*
X950500Y709020D02*
D03*
X1022750D02*
D03*
X1094500Y840000D02*
D03*
X1097610Y709020D02*
D03*
D19*
X787000Y772750D02*
D03*
D20*
X815250Y753700D02*
D03*
X815250Y766400D02*
D03*
X815250Y779100D02*
D03*
Y791800D02*
D03*
X758750Y753700D02*
D03*
Y766400D02*
D03*
Y779100D02*
D03*
Y791800D02*
D03*
D21*
X863500Y793250D02*
D03*
X881500D02*
D03*
X797000Y640750D02*
D03*
X815000D02*
D03*
X883000Y683750D02*
D03*
X865000D02*
D03*
X883000Y720250D02*
D03*
X865000D02*
D03*
D22*
X744500Y698000D02*
D03*
X799000D02*
D03*
D23*
X766000Y640750D02*
D03*
X745000D02*
D03*
D24*
X769250Y818500D02*
D03*
X798250D02*
D03*
X860750Y647000D02*
D03*
X889750D02*
D03*
D25*
X736250Y764250D02*
D03*
X736250Y780250D02*
D03*
D26*
X1162750Y854750D02*
D03*
X1164500Y729500D02*
D03*
X1164750Y607250D02*
D03*
D27*
X703750Y604750D02*
D03*
X704250Y855250D02*
D03*
D28*
X879250Y827000D02*
D03*
X863250D02*
D03*
X880750Y759250D02*
D03*
X864750D02*
D03*
M02*
