G04*
G04 #@! TF.GenerationSoftware,Altium Limited,Altium Designer,20.0.13 (296)*
G04*
G04 Layer_Color=128*
%FSLAX44Y44*%
%MOMM*%
G71*
G01*
G75*
%ADD20O,1.6500X0.6500*%
%ADD21R,1.2000X1.4000*%
%ADD24R,1.3000X1.8000*%
%ADD25R,1.4000X1.3000*%
G04:AMPARAMS|DCode=26|XSize=4mm|YSize=4mm|CornerRadius=1mm|HoleSize=0mm|Usage=FLASHONLY|Rotation=90.000|XOffset=0mm|YOffset=0mm|HoleType=Round|Shape=RoundedRectangle|*
%AMROUNDEDRECTD26*
21,1,4.0000,2.0000,0,0,90.0*
21,1,2.0000,4.0000,0,0,90.0*
1,1,2.0000,1.0000,1.0000*
1,1,2.0000,1.0000,-1.0000*
1,1,2.0000,-1.0000,-1.0000*
1,1,2.0000,-1.0000,1.0000*
%
%ADD26ROUNDEDRECTD26*%
G04:AMPARAMS|DCode=27|XSize=4mm|YSize=6mm|CornerRadius=1mm|HoleSize=0mm|Usage=FLASHONLY|Rotation=90.000|XOffset=0mm|YOffset=0mm|HoleType=Round|Shape=RoundedRectangle|*
%AMROUNDEDRECTD27*
21,1,4.0000,4.0000,0,0,90.0*
21,1,2.0000,6.0000,0,0,90.0*
1,1,2.0000,2.0000,1.0000*
1,1,2.0000,2.0000,-1.0000*
1,1,2.0000,-2.0000,-1.0000*
1,1,2.0000,-2.0000,1.0000*
%
%ADD27ROUNDEDRECTD27*%
%ADD28R,1.3000X1.4000*%
%ADD51R,1.9000X0.4000*%
%ADD52O,0.5500X1.5000*%
%ADD53O,1.5000X0.5500*%
%ADD54O,0.8000X1.5000*%
G04:AMPARAMS|DCode=55|XSize=0.8mm|YSize=1mm|CornerRadius=0.1mm|HoleSize=0mm|Usage=FLASHONLY|Rotation=270.000|XOffset=0mm|YOffset=0mm|HoleType=Round|Shape=RoundedRectangle|*
%AMROUNDEDRECTD55*
21,1,0.8000,0.8000,0,0,270.0*
21,1,0.6000,1.0000,0,0,270.0*
1,1,0.2000,-0.4000,-0.3000*
1,1,0.2000,-0.4000,0.3000*
1,1,0.2000,0.4000,0.3000*
1,1,0.2000,0.4000,-0.3000*
%
%ADD55ROUNDEDRECTD55*%
%ADD56R,2.5000X2.5000*%
%ADD57R,1.8000X1.3000*%
%ADD58R,1.2000X1.2000*%
%ADD59R,1.4000X1.2000*%
D20*
X992750Y647450D02*
D03*
Y660150D02*
D03*
Y672850D02*
D03*
Y685550D02*
D03*
X1049250Y647450D02*
D03*
Y660150D02*
D03*
Y672850D02*
D03*
Y685550D02*
D03*
X994250Y726950D02*
D03*
Y739650D02*
D03*
Y752350D02*
D03*
Y765050D02*
D03*
X1050750Y726950D02*
D03*
Y739650D02*
D03*
Y752350D02*
D03*
Y765050D02*
D03*
X994500Y821200D02*
D03*
Y833900D02*
D03*
Y846600D02*
D03*
Y859300D02*
D03*
X1051000Y821200D02*
D03*
Y833900D02*
D03*
Y846600D02*
D03*
Y859300D02*
D03*
D21*
X1101500Y817500D02*
D03*
X1083500D02*
D03*
X1101500Y632500D02*
D03*
X1083500D02*
D03*
X1101500Y847500D02*
D03*
X1083500D02*
D03*
X1101750Y662000D02*
D03*
X1083750D02*
D03*
X1101500Y727500D02*
D03*
X1083500D02*
D03*
X1101500Y757500D02*
D03*
X1083500D02*
D03*
D24*
X1079500Y789500D02*
D03*
X1108500D02*
D03*
X1079500Y597000D02*
D03*
X1108500D02*
D03*
X1079500Y696500D02*
D03*
X1108500D02*
D03*
D25*
X880000Y609500D02*
D03*
Y593500D02*
D03*
X789250Y820820D02*
D03*
Y804820D02*
D03*
D26*
X1162750Y854750D02*
D03*
X1164500Y729500D02*
D03*
X1164750Y607250D02*
D03*
D27*
X703750Y604750D02*
D03*
X704250Y855250D02*
D03*
D28*
X862500Y757500D02*
D03*
X846500D02*
D03*
D51*
X905000Y733000D02*
D03*
Y745000D02*
D03*
Y757000D02*
D03*
D52*
X827000Y732500D02*
D03*
X835000D02*
D03*
X843000D02*
D03*
X851000D02*
D03*
X859000D02*
D03*
X867000D02*
D03*
X875000D02*
D03*
X883000D02*
D03*
Y647500D02*
D03*
X875000D02*
D03*
X867000D02*
D03*
X859000D02*
D03*
X851000D02*
D03*
X843000D02*
D03*
X835000D02*
D03*
X827000D02*
D03*
D53*
X897500Y718000D02*
D03*
Y710000D02*
D03*
Y702000D02*
D03*
Y694000D02*
D03*
Y686000D02*
D03*
Y678000D02*
D03*
Y670000D02*
D03*
Y662000D02*
D03*
X812500D02*
D03*
Y670000D02*
D03*
Y678000D02*
D03*
Y686000D02*
D03*
Y694000D02*
D03*
Y702000D02*
D03*
Y710000D02*
D03*
Y718000D02*
D03*
D54*
X810000Y853500D02*
D03*
X795000D02*
D03*
X780000D02*
D03*
X765000D02*
D03*
X750000D02*
D03*
X940000Y612500D02*
D03*
X925000D02*
D03*
X910000D02*
D03*
D55*
X1001500Y796250D02*
D03*
X1038500D02*
D03*
Y622500D02*
D03*
X1001500D02*
D03*
X1038500Y704750D02*
D03*
X1001500D02*
D03*
D56*
X902500Y852500D02*
D03*
Y792500D02*
D03*
X842500D02*
D03*
Y852500D02*
D03*
D57*
X965000Y831500D02*
D03*
Y802500D02*
D03*
Y752500D02*
D03*
Y723500D02*
D03*
Y677500D02*
D03*
Y648500D02*
D03*
D58*
X733480Y818000D02*
D03*
Y797000D02*
D03*
X935020Y780500D02*
D03*
Y801500D02*
D03*
X760250Y818000D02*
D03*
Y797000D02*
D03*
D59*
X780250Y659500D02*
D03*
Y641500D02*
D03*
X934500Y854250D02*
D03*
Y836250D02*
D03*
X760500Y765000D02*
D03*
Y747000D02*
D03*
X934500Y735250D02*
D03*
Y753250D02*
D03*
X735000Y765000D02*
D03*
Y747000D02*
D03*
X780000Y710750D02*
D03*
Y692750D02*
D03*
X757750Y659500D02*
D03*
Y641500D02*
D03*
X757500Y710750D02*
D03*
Y692750D02*
D03*
X735250Y659500D02*
D03*
Y641500D02*
D03*
X735000Y710750D02*
D03*
Y692750D02*
D03*
X812500Y611000D02*
D03*
Y593000D02*
D03*
X835000Y611000D02*
D03*
Y593000D02*
D03*
X857500Y611000D02*
D03*
Y593000D02*
D03*
X814750Y821300D02*
D03*
Y803300D02*
D03*
M02*
