G04*
G04 #@! TF.GenerationSoftware,Altium Limited,Altium Designer,20.0.13 (296)*
G04*
G04 Layer_Physical_Order=1*
G04 Layer_Color=255*
%FSLAX44Y44*%
%MOMM*%
G71*
G01*
G75*
G04:AMPARAMS|DCode=17|XSize=1.27mm|YSize=2.032mm|CornerRadius=0.254mm|HoleSize=0mm|Usage=FLASHONLY|Rotation=0.000|XOffset=0mm|YOffset=0mm|HoleType=Round|Shape=RoundedRectangle|*
%AMROUNDEDRECTD17*
21,1,1.2700,1.5240,0,0,0.0*
21,1,0.7620,2.0320,0,0,0.0*
1,1,0.5080,0.3810,-0.7620*
1,1,0.5080,-0.3810,-0.7620*
1,1,0.5080,-0.3810,0.7620*
1,1,0.5080,0.3810,0.7620*
%
%ADD17ROUNDEDRECTD17*%
G04:AMPARAMS|DCode=18|XSize=6.096mm|YSize=6.858mm|CornerRadius=1.2192mm|HoleSize=0mm|Usage=FLASHONLY|Rotation=0.000|XOffset=0mm|YOffset=0mm|HoleType=Round|Shape=RoundedRectangle|*
%AMROUNDEDRECTD18*
21,1,6.0960,4.4196,0,0,0.0*
21,1,3.6576,6.8580,0,0,0.0*
1,1,2.4384,1.8288,-2.2098*
1,1,2.4384,-1.8288,-2.2098*
1,1,2.4384,-1.8288,2.2098*
1,1,2.4384,1.8288,2.2098*
%
%ADD18ROUNDEDRECTD18*%
%ADD19R,2.5600X3.4500*%
%ADD20O,1.6500X0.6500*%
%ADD21R,1.2000X1.4000*%
%ADD22R,3.2000X3.1500*%
%ADD23R,1.2000X1.2000*%
%ADD24R,1.3000X1.8000*%
%ADD25R,1.4000X1.3000*%
G04:AMPARAMS|DCode=26|XSize=4mm|YSize=4mm|CornerRadius=1mm|HoleSize=0mm|Usage=FLASHONLY|Rotation=90.000|XOffset=0mm|YOffset=0mm|HoleType=Round|Shape=RoundedRectangle|*
%AMROUNDEDRECTD26*
21,1,4.0000,2.0000,0,0,90.0*
21,1,2.0000,4.0000,0,0,90.0*
1,1,2.0000,1.0000,1.0000*
1,1,2.0000,1.0000,-1.0000*
1,1,2.0000,-1.0000,-1.0000*
1,1,2.0000,-1.0000,1.0000*
%
%ADD26ROUNDEDRECTD26*%
G04:AMPARAMS|DCode=27|XSize=4mm|YSize=6mm|CornerRadius=1mm|HoleSize=0mm|Usage=FLASHONLY|Rotation=90.000|XOffset=0mm|YOffset=0mm|HoleType=Round|Shape=RoundedRectangle|*
%AMROUNDEDRECTD27*
21,1,4.0000,4.0000,0,0,90.0*
21,1,2.0000,6.0000,0,0,90.0*
1,1,2.0000,2.0000,1.0000*
1,1,2.0000,2.0000,-1.0000*
1,1,2.0000,-2.0000,-1.0000*
1,1,2.0000,-2.0000,1.0000*
%
%ADD27ROUNDEDRECTD27*%
%ADD28R,1.3000X1.4000*%
%ADD29C,4.0000*%
%ADD30R,2.9000X8.0750*%
%ADD31R,44.0500X3.9250*%
%ADD45C,0.5000*%
%ADD46C,0.6000*%
%ADD47R,6.1750X4.0000*%
%ADD48R,2.4750X5.6750*%
%ADD49R,2.3250X5.6750*%
%ADD50C,0.6000*%
G36*
X916500Y780328D02*
X910608D01*
X909250Y780598D01*
X907299Y780210D01*
X905645Y779105D01*
X904540Y777451D01*
X904152Y775500D01*
X904196Y775277D01*
Y774788D01*
X904585Y772837D01*
X905690Y771183D01*
X907344Y770078D01*
X909294Y769690D01*
X911245Y770078D01*
X911326Y770132D01*
X916500D01*
Y713803D01*
X915230Y713417D01*
X915105Y713605D01*
X913451Y714710D01*
X911500Y715098D01*
X909549Y714710D01*
X907895Y713605D01*
X906790Y711951D01*
X906402Y710000D01*
X906790Y708049D01*
X907555Y706905D01*
X907792Y706000D01*
X907555Y705095D01*
X906790Y703951D01*
X906402Y702000D01*
X906790Y700049D01*
X907555Y698905D01*
X907792Y698000D01*
X907555Y697095D01*
X906790Y695951D01*
X906402Y694000D01*
X906790Y692049D01*
X907555Y690905D01*
X907792Y690000D01*
X907555Y689095D01*
X906790Y687951D01*
X906402Y686000D01*
X906563Y685193D01*
X905392Y684567D01*
X902605Y687355D01*
X900951Y688460D01*
X899000Y688848D01*
X891000D01*
Y692750D01*
X875000D01*
Y674750D01*
X877902D01*
Y668619D01*
X876381Y667098D01*
X834236D01*
X833523Y668368D01*
X833848Y670000D01*
X833460Y671951D01*
X832695Y673095D01*
X832458Y674000D01*
X832695Y674905D01*
X833460Y676049D01*
X833848Y678000D01*
X833460Y679951D01*
X832695Y681095D01*
X832458Y682000D01*
X832695Y682905D01*
X833328Y683852D01*
X834701Y684276D01*
X839582Y679395D01*
X841235Y678290D01*
X843186Y677902D01*
X857000D01*
Y674750D01*
X873000D01*
Y692750D01*
X857000D01*
Y688098D01*
X846577D01*
X846192Y689368D01*
X847355Y690145D01*
X848460Y691799D01*
X848848Y693750D01*
X848460Y695701D01*
X847355Y697355D01*
Y698478D01*
X847605Y698645D01*
X848710Y700299D01*
X849098Y702250D01*
X848710Y704201D01*
X847605Y705855D01*
X846901Y706325D01*
X846441Y707545D01*
X847546Y709199D01*
X847934Y711150D01*
X847546Y713101D01*
X846441Y714754D01*
X844787Y715860D01*
X842836Y716248D01*
X840885Y715860D01*
X839231Y714754D01*
X838126Y713101D01*
X838118Y713060D01*
X836848Y713185D01*
Y750185D01*
X836460Y752136D01*
X835355Y753790D01*
X831840Y757305D01*
X830186Y758410D01*
X828235Y758798D01*
X821531D01*
X820250Y759053D01*
X810250D01*
X808202Y758645D01*
X806465Y757485D01*
X805305Y755748D01*
X804897Y753700D01*
X805305Y751652D01*
X806465Y749915D01*
X808202Y748755D01*
X810250Y748347D01*
X820250D01*
X821531Y748602D01*
X826124D01*
X826652Y748074D01*
Y694436D01*
X827040Y692485D01*
X827424Y691911D01*
X826938Y690738D01*
X826799Y690710D01*
X825145Y689605D01*
X824040Y687951D01*
X823652Y686000D01*
X824040Y684049D01*
X824805Y682905D01*
X825042Y682000D01*
X824805Y681095D01*
X824040Y679951D01*
X823652Y678000D01*
X824040Y676049D01*
X824805Y674905D01*
X825042Y674000D01*
X824805Y673095D01*
X824040Y671951D01*
X823652Y670000D01*
X823977Y668368D01*
X823264Y667098D01*
X811376D01*
X810348Y668126D01*
Y680250D01*
X817000D01*
Y715750D01*
X781000D01*
Y680250D01*
X800152D01*
Y666015D01*
X800540Y664064D01*
X801645Y662410D01*
X805660Y658395D01*
X807314Y657290D01*
X809265Y656902D01*
X851710D01*
Y648270D01*
X860750D01*
X869790D01*
Y656902D01*
X878493D01*
X879980Y657198D01*
X881250Y656418D01*
Y643960D01*
X875615Y638325D01*
X875500Y638348D01*
X874243Y638098D01*
X869790D01*
Y645730D01*
X860750D01*
X851710D01*
Y641909D01*
X850537Y641423D01*
X843605Y648355D01*
X841951Y649460D01*
X840000Y649848D01*
X818000D01*
X817507Y649750D01*
X807000D01*
Y631750D01*
X823000D01*
Y639652D01*
X837888D01*
X841582Y635958D01*
X841214Y634743D01*
X841049Y634710D01*
X839395Y633605D01*
X838290Y631951D01*
X837902Y630000D01*
X838290Y628049D01*
X839395Y626395D01*
X841049Y625290D01*
X843000Y624902D01*
X844951Y625290D01*
X846605Y626395D01*
X847710Y628049D01*
X847729Y628146D01*
X849140Y628730D01*
X849799Y628290D01*
X851750Y627902D01*
X875500D01*
X876500Y628101D01*
X877500Y627902D01*
X879451Y628290D01*
X881105Y629395D01*
X887710Y636000D01*
X898250D01*
Y642152D01*
X901750D01*
X903701Y642540D01*
X905355Y643645D01*
X911105Y649395D01*
X912210Y651049D01*
X912598Y653000D01*
Y675250D01*
X912210Y677201D01*
X911105Y678855D01*
X910068Y679892D01*
X910693Y681062D01*
X911500Y680902D01*
X913451Y681290D01*
X915105Y682395D01*
X915230Y682583D01*
X916500Y682197D01*
Y646098D01*
X913750D01*
X911799Y645710D01*
X910145Y644605D01*
X909040Y642951D01*
X908652Y641000D01*
X909040Y639049D01*
X910145Y637395D01*
X911799Y636290D01*
X913750Y635902D01*
X916500D01*
Y622000D01*
X733993D01*
X732694Y623694D01*
X730074Y625704D01*
X728036Y626548D01*
X727345Y627799D01*
X727733Y629750D01*
X727345Y631701D01*
X726240Y633355D01*
X724586Y634460D01*
X723530Y634670D01*
X722733Y636064D01*
X722928Y636536D01*
X723384Y640000D01*
X723334D01*
Y720572D01*
X724604Y720957D01*
X724645Y720895D01*
X726299Y719790D01*
X728250Y719402D01*
X730201Y719790D01*
X731855Y720895D01*
X732960Y722549D01*
X733165Y723579D01*
X734543Y723997D01*
X739152Y719388D01*
Y715750D01*
X726500D01*
Y680250D01*
X762500D01*
Y715750D01*
X758127D01*
X757448Y717020D01*
X757771Y717504D01*
X758159Y719455D01*
X757771Y721405D01*
X756666Y723059D01*
X755012Y724165D01*
X753061Y724553D01*
X751110Y724165D01*
X750230Y723576D01*
X749078Y723463D01*
X748642Y723926D01*
X747855Y725105D01*
X741348Y731612D01*
Y755750D01*
X745250D01*
Y761206D01*
X752950D01*
X753750Y761047D01*
X763750D01*
X765798Y761455D01*
X767535Y762615D01*
X768695Y764352D01*
X769103Y766400D01*
X768695Y768448D01*
X767535Y770185D01*
X765798Y771345D01*
X763750Y771753D01*
X753750D01*
X751988Y771402D01*
X745250D01*
Y772750D01*
X745250D01*
Y774098D01*
X751988D01*
X753750Y773747D01*
X763750D01*
X765798Y774155D01*
X767535Y775315D01*
X768695Y777052D01*
X769103Y779100D01*
X768695Y781148D01*
X767535Y782885D01*
X765798Y784045D01*
X763750Y784453D01*
X753750D01*
X752950Y784294D01*
X745250D01*
Y788750D01*
X741348D01*
Y804388D01*
X750612Y813652D01*
X760750D01*
Y807500D01*
X777750D01*
Y829500D01*
X774348D01*
Y831750D01*
X842744D01*
X843270Y830480D01*
X835645Y822855D01*
X834540Y821201D01*
X834152Y819250D01*
Y805112D01*
X826034Y796994D01*
X821050D01*
X820250Y797153D01*
X810250D01*
X808202Y796745D01*
X806465Y795585D01*
X805305Y793848D01*
X804897Y791800D01*
X805305Y789752D01*
X806465Y788015D01*
X808202Y786855D01*
X810250Y786447D01*
X820250D01*
X822012Y786798D01*
X828146D01*
X828952Y786958D01*
X829578Y785788D01*
X827988Y784198D01*
X821531D01*
X820250Y784453D01*
X810250D01*
X808202Y784045D01*
X806465Y782885D01*
X805305Y781148D01*
X804897Y779100D01*
X805305Y777052D01*
X806465Y775315D01*
X808202Y774155D01*
X810250Y773747D01*
X820250D01*
X821531Y774002D01*
X830100D01*
X832051Y774390D01*
X833705Y775495D01*
X845112Y786902D01*
X855500D01*
Y784250D01*
X871500D01*
Y802250D01*
X855500D01*
Y797098D01*
X843000D01*
X842193Y796937D01*
X841568Y798108D01*
X842855Y799395D01*
X843960Y801049D01*
X844348Y803000D01*
Y817138D01*
X849362Y822152D01*
X854750D01*
Y818000D01*
X870210D01*
Y817460D01*
X877980D01*
Y827000D01*
X879250D01*
Y828270D01*
X888290D01*
Y831750D01*
X899652D01*
Y827087D01*
X898532Y826489D01*
X898201Y826710D01*
X896250Y827098D01*
X894299Y826710D01*
X892645Y825605D01*
X891540Y823951D01*
X891152Y822000D01*
X891540Y820049D01*
X892645Y818395D01*
X894299Y817290D01*
X896250Y816902D01*
X898201Y817290D01*
X898532Y817511D01*
X899652Y816913D01*
Y804862D01*
X893138Y798348D01*
X889500D01*
Y802250D01*
X873500D01*
Y784250D01*
X889500D01*
Y788152D01*
X895250D01*
X897201Y788540D01*
X898855Y789645D01*
X908355Y799145D01*
X909460Y800799D01*
X909848Y802750D01*
Y820750D01*
X909724Y821375D01*
X909848Y822000D01*
Y831750D01*
X916500D01*
Y780328D01*
D02*
G37*
%LPC*%
G36*
X807290Y830040D02*
X799520D01*
Y819770D01*
X807290D01*
Y830040D01*
D02*
G37*
G36*
X796980D02*
X789210D01*
Y819770D01*
X796980D01*
Y830040D01*
D02*
G37*
G36*
X888290Y825730D02*
X880520D01*
Y817460D01*
X888290D01*
Y825730D01*
D02*
G37*
G36*
X807290Y817230D02*
X799520D01*
Y806960D01*
X807290D01*
Y817230D01*
D02*
G37*
G36*
X796980D02*
X789210D01*
Y806960D01*
X796980D01*
Y817230D01*
D02*
G37*
G36*
X763750Y797153D02*
X753750D01*
X751702Y796745D01*
X749965Y795585D01*
X748805Y793848D01*
X748397Y791800D01*
X748805Y789752D01*
X749965Y788015D01*
X751702Y786855D01*
X753750Y786447D01*
X763750D01*
X765798Y786855D01*
X767535Y788015D01*
X768695Y789752D01*
X769103Y791800D01*
X768695Y793848D01*
X767535Y795585D01*
X765798Y796745D01*
X763750Y797153D01*
D02*
G37*
G36*
Y759603D02*
X760020D01*
Y754970D01*
X769401D01*
X769204Y755959D01*
X767924Y757874D01*
X766009Y759154D01*
X763750Y759603D01*
D02*
G37*
G36*
X757480D02*
X753750D01*
X751491Y759154D01*
X749576Y757874D01*
X748296Y755959D01*
X748099Y754970D01*
X757480D01*
Y759603D01*
D02*
G37*
G36*
X801800Y792000D02*
X772200D01*
Y753500D01*
X801800D01*
Y792000D01*
D02*
G37*
G36*
X769401Y752430D02*
X760020D01*
Y747796D01*
X763750D01*
X766009Y748246D01*
X767924Y749526D01*
X769204Y751441D01*
X769401Y752430D01*
D02*
G37*
G36*
X757480D02*
X748099D01*
X748296Y751441D01*
X749576Y749526D01*
X751491Y748246D01*
X753750Y747796D01*
X757480D01*
Y752430D01*
D02*
G37*
G36*
X902270Y750396D02*
Y746270D01*
X906396D01*
X906218Y747162D01*
X904994Y748994D01*
X903162Y750219D01*
X902270Y750396D01*
D02*
G37*
G36*
X899730D02*
X898838Y750219D01*
X897006Y748994D01*
X895781Y747162D01*
X895604Y746270D01*
X899730D01*
Y750396D01*
D02*
G37*
G36*
X906396Y743730D02*
X902270D01*
Y739604D01*
X903162Y739781D01*
X904994Y741006D01*
X906218Y742838D01*
X906396Y743730D01*
D02*
G37*
G36*
X899730D02*
X895604D01*
X895781Y742838D01*
X897006Y741006D01*
X898838Y739781D01*
X899730Y739604D01*
Y743730D01*
D02*
G37*
G36*
X812500Y743598D02*
X810549Y743210D01*
X808895Y742105D01*
X807790Y740451D01*
X807402Y738500D01*
X807790Y736549D01*
X808895Y734895D01*
X810549Y733790D01*
X812500Y733402D01*
X814451Y733790D01*
X816105Y734895D01*
X817210Y736549D01*
X817598Y738500D01*
X817210Y740451D01*
X816105Y742105D01*
X814451Y743210D01*
X812500Y743598D01*
D02*
G37*
G36*
X788250Y736598D02*
X786299Y736210D01*
X784645Y735105D01*
X783540Y733451D01*
X783152Y731500D01*
X783540Y729549D01*
X783704Y729305D01*
X782788Y728389D01*
X782307Y728710D01*
X780357Y729098D01*
X778406Y728710D01*
X776752Y727605D01*
X775647Y725951D01*
X775259Y724000D01*
X775647Y722049D01*
X776752Y720395D01*
X778406Y719290D01*
X780357Y718902D01*
X782307Y719290D01*
X783961Y720395D01*
X785066Y722049D01*
X785454Y724000D01*
X785066Y725951D01*
X784903Y726196D01*
X785819Y727111D01*
X786299Y726790D01*
X788250Y726402D01*
X790201Y726790D01*
X791855Y727895D01*
X792960Y729549D01*
X793348Y731500D01*
X792960Y733451D01*
X791855Y735105D01*
X790201Y736210D01*
X788250Y736598D01*
D02*
G37*
G36*
X873540Y729790D02*
X866270D01*
Y721520D01*
X873540D01*
Y729790D01*
D02*
G37*
G36*
X863730D02*
X856460D01*
Y721520D01*
X863730D01*
Y729790D01*
D02*
G37*
G36*
X799250Y730848D02*
X797299Y730460D01*
X795645Y729355D01*
X794540Y727701D01*
X794152Y725750D01*
X794540Y723799D01*
X795645Y722145D01*
X797299Y721040D01*
X799250Y720652D01*
X801201Y721040D01*
X802855Y722145D01*
X803960Y723799D01*
X804348Y725750D01*
X803960Y727701D01*
X802855Y729355D01*
X801201Y730460D01*
X799250Y730848D01*
D02*
G37*
G36*
X768250Y730598D02*
X766299Y730210D01*
X764645Y729105D01*
X763540Y727451D01*
X763152Y725500D01*
X763540Y723549D01*
X764645Y721895D01*
X766299Y720790D01*
X768250Y720402D01*
X770201Y720790D01*
X771855Y721895D01*
X772960Y723549D01*
X773348Y725500D01*
X772960Y727451D01*
X771855Y729105D01*
X770201Y730210D01*
X768250Y730598D01*
D02*
G37*
G36*
X820250Y771753D02*
X810250D01*
X808202Y771345D01*
X806465Y770185D01*
X805305Y768448D01*
X804897Y766400D01*
X805305Y764352D01*
X806465Y762615D01*
X808202Y761455D01*
X810250Y761047D01*
X820250D01*
X821531Y761302D01*
X833738D01*
X839395Y755645D01*
X841049Y754540D01*
X843000Y754152D01*
X856250D01*
Y750250D01*
X876777D01*
Y729250D01*
X875000D01*
Y711250D01*
X891000D01*
Y729250D01*
X886973D01*
Y750250D01*
X889250D01*
Y768250D01*
X856250D01*
Y764348D01*
X845112D01*
X839455Y770005D01*
X837801Y771110D01*
X835850Y771498D01*
X821531D01*
X820250Y771753D01*
D02*
G37*
G36*
X873540Y718980D02*
X866270D01*
Y710710D01*
X873540D01*
Y718980D01*
D02*
G37*
G36*
X863730D02*
X856460D01*
Y710710D01*
X863730D01*
Y718980D01*
D02*
G37*
G36*
X757500Y678348D02*
X755549Y677960D01*
X753895Y676855D01*
X752790Y675201D01*
X752402Y673250D01*
X752790Y671299D01*
X753895Y669645D01*
X755549Y668540D01*
X757500Y668152D01*
X759451Y668540D01*
X761105Y669645D01*
X762210Y671299D01*
X762598Y673250D01*
X762210Y675201D01*
X761105Y676855D01*
X759451Y677960D01*
X757500Y678348D01*
D02*
G37*
G36*
X735250Y677848D02*
X733299Y677460D01*
X731645Y676355D01*
X730540Y674701D01*
X730152Y672750D01*
X730540Y670799D01*
X731645Y669145D01*
X733299Y668040D01*
X735250Y667652D01*
X737201Y668040D01*
X738855Y669145D01*
X739960Y670799D01*
X740348Y672750D01*
X739960Y674701D01*
X738855Y676355D01*
X737201Y677460D01*
X735250Y677848D01*
D02*
G37*
G36*
X805000Y649750D02*
X789000D01*
Y645848D01*
X774000D01*
Y648750D01*
X758000D01*
Y632750D01*
X774000D01*
Y635652D01*
X789000D01*
Y631750D01*
X805000D01*
Y649750D01*
D02*
G37*
G36*
X753540Y649290D02*
X746270D01*
Y642020D01*
X753540D01*
Y649290D01*
D02*
G37*
G36*
X743730D02*
X736460D01*
Y642020D01*
X743730D01*
Y649290D01*
D02*
G37*
G36*
X753540Y639480D02*
X746270D01*
Y632210D01*
X753540D01*
Y639480D01*
D02*
G37*
G36*
X743730D02*
X736460D01*
Y632210D01*
X743730D01*
Y639480D01*
D02*
G37*
G36*
X830250Y634598D02*
X828299Y634210D01*
X826645Y633105D01*
X825540Y631451D01*
X825152Y629500D01*
X825540Y627549D01*
X826645Y625895D01*
X828299Y624790D01*
X830250Y624402D01*
X832201Y624790D01*
X833855Y625895D01*
X834960Y627549D01*
X835348Y629500D01*
X834960Y631451D01*
X833855Y633105D01*
X832201Y634210D01*
X830250Y634598D01*
D02*
G37*
%LPD*%
D17*
X927390Y775230D02*
D03*
X973110D02*
D03*
X1045360D02*
D03*
X999640D02*
D03*
X973360Y644250D02*
D03*
X927640Y644250D02*
D03*
X1045610Y644250D02*
D03*
X999890D02*
D03*
X1117360Y775230D02*
D03*
X1071640D02*
D03*
X1120470Y644250D02*
D03*
X1074750D02*
D03*
D18*
X950250Y840000D02*
D03*
X1022500D02*
D03*
X950500Y709020D02*
D03*
X1022750D02*
D03*
X1094500Y840000D02*
D03*
X1097610Y709020D02*
D03*
D19*
X787000Y772750D02*
D03*
D20*
X815250Y753700D02*
D03*
X815250Y766400D02*
D03*
X815250Y779100D02*
D03*
Y791800D02*
D03*
X758750Y753700D02*
D03*
Y766400D02*
D03*
Y779100D02*
D03*
Y791800D02*
D03*
D21*
X863500Y793250D02*
D03*
X881500D02*
D03*
X797000Y640750D02*
D03*
X815000D02*
D03*
X883000Y683750D02*
D03*
X865000D02*
D03*
X883000Y720250D02*
D03*
X865000D02*
D03*
D22*
X744500Y698000D02*
D03*
X799000D02*
D03*
D23*
X766000Y640750D02*
D03*
X745000D02*
D03*
D24*
X769250Y818500D02*
D03*
X798250D02*
D03*
X860750Y647000D02*
D03*
X889750D02*
D03*
D25*
X736250Y764250D02*
D03*
X736250Y780250D02*
D03*
D26*
X1162750Y854750D02*
D03*
X1164500Y729500D02*
D03*
X1164750Y607250D02*
D03*
D27*
X703750Y604750D02*
D03*
X704250Y855250D02*
D03*
D28*
X879250Y827000D02*
D03*
X863250D02*
D03*
X880750Y759250D02*
D03*
X864750D02*
D03*
D29*
X705730Y856730D02*
X1098250D01*
X704250Y855250D02*
X705730Y856730D01*
D30*
X1114250Y626875D02*
D03*
X1038750D02*
D03*
X966500Y627125D02*
D03*
D31*
X908250Y604875D02*
D03*
D45*
X1013750Y660500D02*
X1014000D01*
X1004000Y650750D02*
X1013750Y660500D01*
X1004000Y648750D02*
Y650750D01*
X1075250Y648250D02*
X1076000Y647500D01*
X1091000D01*
D46*
X890625Y645375D02*
Y647875D01*
X851750Y633000D02*
X875500D01*
X909520Y775230D02*
X927390D01*
X909250Y775500D02*
X909520Y775230D01*
X909294Y774788D02*
Y775456D01*
X909250Y775500D02*
X909294Y775456D01*
X744250Y710750D02*
X744500D01*
X769250Y818500D02*
Y845500D01*
X768250Y846500D02*
X769250Y845500D01*
X1014230Y775230D02*
X1014250Y775250D01*
X999640Y775230D02*
X1014230D01*
X1060250Y758250D02*
X1069500Y767500D01*
X1060250Y719000D02*
Y758250D01*
X913750Y641000D02*
X924390D01*
X927640Y644250D01*
X818000Y644750D02*
X840000D01*
X851750Y633000D01*
X904750Y822000D02*
Y846000D01*
X907500Y848750D01*
X904750Y802750D02*
Y820750D01*
X739696Y779196D02*
X758654D01*
X758750Y779100D01*
X877500Y633000D02*
X885250Y640750D01*
X885500D01*
X815000Y640750D02*
Y641750D01*
X818000Y644750D01*
X886250Y641000D02*
X890625Y645375D01*
X805000Y687750D02*
X805250Y687500D01*
Y666015D02*
Y687500D01*
X744250Y710750D02*
X744250Y710750D01*
X744250Y710750D02*
Y721500D01*
X809265Y662000D02*
X878493D01*
X805250Y666015D02*
X809265Y662000D01*
X878493D02*
X883000Y666507D01*
Y683750D01*
X843186Y683000D02*
X862000D01*
X831750Y694436D02*
X843186Y683000D01*
X831750Y694436D02*
Y750185D01*
X766000Y640750D02*
X794000D01*
X794250Y641000D01*
Y641250D01*
X901750Y647250D02*
X907500Y653000D01*
X891250Y647250D02*
X901750D01*
X907500Y653000D02*
Y675250D01*
X883000Y683750D02*
X899000D01*
X907500Y675250D01*
X847250Y827250D02*
X860000D01*
X839250Y819250D02*
X847250Y827250D01*
X839250Y803000D02*
Y819250D01*
X828146Y791896D02*
X839250Y803000D01*
X815250Y791800D02*
X815346Y791896D01*
X828146D01*
X830100Y779100D02*
X843000Y792000D01*
X858500D01*
X815250Y779100D02*
X830100D01*
X881875Y721375D02*
X883000Y720250D01*
X881875Y721375D02*
Y755625D01*
X882750Y756500D01*
X862000Y683000D02*
Y684500D01*
X815250Y753700D02*
X828235D01*
X831750Y750185D01*
X864250Y759250D02*
X864750Y759750D01*
X843000Y759250D02*
X864250D01*
X815250Y766400D02*
X835850D01*
X843000Y759250D01*
X748500Y818750D02*
X765250D01*
X736250Y806500D02*
X748500Y818750D01*
X736250Y780250D02*
Y806500D01*
X736250Y729500D02*
X744250Y721500D01*
X736250Y729500D02*
Y764250D01*
X758654Y766304D02*
X758750Y766400D01*
X737804Y766304D02*
X758654D01*
X736500Y765000D02*
X737804Y766304D01*
X895250Y793250D02*
X904750Y802750D01*
X881500Y793250D02*
X895250D01*
D47*
X1145375Y729250D02*
D03*
D48*
X1114875Y757125D02*
D03*
D49*
X1040625D02*
D03*
X968125D02*
D03*
D50*
X1014000Y660500D02*
D03*
X1061750Y640500D02*
D03*
X1063250Y669500D02*
D03*
X1126730Y673572D02*
D03*
X909294Y774788D02*
D03*
X911500Y694000D02*
D03*
Y686000D02*
D03*
X728250Y724500D02*
D03*
X780357Y724000D02*
D03*
X753061Y719455D02*
D03*
X1091000Y647500D02*
D03*
X960250Y695750D02*
D03*
X973000Y689500D02*
D03*
X966750D02*
D03*
X960500D02*
D03*
X966500Y695750D02*
D03*
X972750D02*
D03*
X954000Y695500D02*
D03*
X954250Y689250D02*
D03*
X953751Y701750D02*
D03*
X972501Y702001D02*
D03*
X966251D02*
D03*
X960001D02*
D03*
X1017593Y756157D02*
D03*
X1023500Y695000D02*
D03*
X1029750D02*
D03*
X1036000D02*
D03*
X1036250Y688750D02*
D03*
X1030000D02*
D03*
X1023750D02*
D03*
X1024000Y682500D02*
D03*
X1030250D02*
D03*
X1036500D02*
D03*
X875500Y633250D02*
D03*
X799250Y725750D02*
D03*
X844000Y702250D02*
D03*
X1012250Y795000D02*
D03*
X1093500Y788250D02*
D03*
X911500Y710000D02*
D03*
Y702000D02*
D03*
X1009250Y762500D02*
D03*
X1014250Y775250D02*
D03*
X1060250Y719000D02*
D03*
X1120968Y801032D02*
D03*
X913750Y641000D02*
D03*
X896250Y822000D02*
D03*
X904750D02*
D03*
X901000Y745000D02*
D03*
X935500Y629500D02*
D03*
X842836Y711150D02*
D03*
X754715Y831719D02*
D03*
X744286Y831541D02*
D03*
X1133750Y632500D02*
D03*
X1118500Y753750D02*
D03*
X1021245Y795028D02*
D03*
X768250Y725500D02*
D03*
X788250Y731500D02*
D03*
X735250Y672750D02*
D03*
X722635Y629750D02*
D03*
X830250Y629500D02*
D03*
X843000Y630000D02*
D03*
X757500Y673250D02*
D03*
X828750Y670000D02*
D03*
Y678000D02*
D03*
Y686000D02*
D03*
X843750Y693750D02*
D03*
X812500Y738500D02*
D03*
X792500Y761750D02*
D03*
X781500D02*
D03*
Y772750D02*
D03*
X792500D02*
D03*
Y783750D02*
D03*
X781500D02*
D03*
X1155500Y617750D02*
D03*
X1165250Y618000D02*
D03*
X1174500Y618250D02*
D03*
X1174750Y608250D02*
D03*
X1165500Y608000D02*
D03*
X1155750Y607750D02*
D03*
Y597000D02*
D03*
X1165500Y597250D02*
D03*
X1174750Y597500D02*
D03*
X1174500Y719750D02*
D03*
X1165250Y719500D02*
D03*
X1155500Y719250D02*
D03*
Y730000D02*
D03*
X1165250Y730250D02*
D03*
X1174500Y730500D02*
D03*
X1174250Y740500D02*
D03*
X1165000Y740250D02*
D03*
X1155250Y740000D02*
D03*
X1153500Y865250D02*
D03*
X1163250Y865500D02*
D03*
X1172500Y865750D02*
D03*
X1172750Y855750D02*
D03*
X1163500Y855500D02*
D03*
X1153750Y855250D02*
D03*
Y844500D02*
D03*
X1163500Y844750D02*
D03*
X1172750Y845000D02*
D03*
X723000Y595500D02*
D03*
X703750Y595250D02*
D03*
X713500Y595500D02*
D03*
X694500Y595000D02*
D03*
X684750Y594750D02*
D03*
Y605500D02*
D03*
X694500Y605750D02*
D03*
X713500Y606250D02*
D03*
X703750Y606000D02*
D03*
X723000Y606250D02*
D03*
X722750Y616250D02*
D03*
X703500Y616000D02*
D03*
X713250Y616250D02*
D03*
X694250Y615750D02*
D03*
X684500Y615500D02*
D03*
X685000Y866000D02*
D03*
X694750Y866250D02*
D03*
X713750Y866750D02*
D03*
X704000Y866500D02*
D03*
X723250Y866750D02*
D03*
X723500Y856750D02*
D03*
X704250Y856500D02*
D03*
X714000Y856750D02*
D03*
X695000Y856250D02*
D03*
X685250Y856000D02*
D03*
Y845250D02*
D03*
X695000Y845500D02*
D03*
X714000Y846000D02*
D03*
X704250Y845750D02*
D03*
X723500Y846000D02*
D03*
M02*
