G04*
G04 #@! TF.GenerationSoftware,Altium Limited,Altium Designer,20.0.13 (296)*
G04*
G04 Layer_Color=8388736*
%FSLAX44Y44*%
%MOMM*%
G71*
G01*
G75*
%ADD29C,4.0000*%
%ADD30R,2.9000X8.0750*%
%ADD31R,44.0500X3.9250*%
G04:AMPARAMS|DCode=32|XSize=1.4732mm|YSize=2.2352mm|CornerRadius=0.3556mm|HoleSize=0mm|Usage=FLASHONLY|Rotation=0.000|XOffset=0mm|YOffset=0mm|HoleType=Round|Shape=RoundedRectangle|*
%AMROUNDEDRECTD32*
21,1,1.4732,1.5240,0,0,0.0*
21,1,0.7620,2.2352,0,0,0.0*
1,1,0.7112,0.3810,-0.7620*
1,1,0.7112,-0.3810,-0.7620*
1,1,0.7112,-0.3810,0.7620*
1,1,0.7112,0.3810,0.7620*
%
%ADD32ROUNDEDRECTD32*%
G04:AMPARAMS|DCode=33|XSize=6.2992mm|YSize=7.0612mm|CornerRadius=1.3208mm|HoleSize=0mm|Usage=FLASHONLY|Rotation=0.000|XOffset=0mm|YOffset=0mm|HoleType=Round|Shape=RoundedRectangle|*
%AMROUNDEDRECTD33*
21,1,6.2992,4.4196,0,0,0.0*
21,1,3.6576,7.0612,0,0,0.0*
1,1,2.6416,1.8288,-2.2098*
1,1,2.6416,-1.8288,-2.2098*
1,1,2.6416,-1.8288,2.2098*
1,1,2.6416,1.8288,2.2098*
%
%ADD33ROUNDEDRECTD33*%
%ADD34R,2.7632X3.6532*%
%ADD35O,1.8532X0.8532*%
%ADD36R,1.4032X1.6032*%
%ADD37R,3.4032X3.3532*%
%ADD38R,1.4032X1.4032*%
%ADD39R,1.5032X2.0032*%
%ADD40R,1.6032X1.5032*%
G04:AMPARAMS|DCode=41|XSize=4.2032mm|YSize=4.2032mm|CornerRadius=1.1016mm|HoleSize=0mm|Usage=FLASHONLY|Rotation=90.000|XOffset=0mm|YOffset=0mm|HoleType=Round|Shape=RoundedRectangle|*
%AMROUNDEDRECTD41*
21,1,4.2032,2.0000,0,0,90.0*
21,1,2.0000,4.2032,0,0,90.0*
1,1,2.2032,1.0000,1.0000*
1,1,2.2032,1.0000,-1.0000*
1,1,2.2032,-1.0000,-1.0000*
1,1,2.2032,-1.0000,1.0000*
%
%ADD41ROUNDEDRECTD41*%
G04:AMPARAMS|DCode=42|XSize=4.2032mm|YSize=6.2032mm|CornerRadius=1.1016mm|HoleSize=0mm|Usage=FLASHONLY|Rotation=90.000|XOffset=0mm|YOffset=0mm|HoleType=Round|Shape=RoundedRectangle|*
%AMROUNDEDRECTD42*
21,1,4.2032,4.0000,0,0,90.0*
21,1,2.0000,6.2032,0,0,90.0*
1,1,2.2032,2.0000,1.0000*
1,1,2.2032,2.0000,-1.0000*
1,1,2.2032,-2.0000,-1.0000*
1,1,2.2032,-2.0000,1.0000*
%
%ADD42ROUNDEDRECTD42*%
%ADD43R,1.5032X1.6032*%
%ADD44C,0.8032*%
D29*
X846887Y855250D02*
X848367Y856730D01*
X1098250D01*
X704250Y855250D02*
X846887D01*
D30*
X1114250Y626875D02*
D03*
X1038750D02*
D03*
X966500Y627125D02*
D03*
D31*
X908250Y604875D02*
D03*
D32*
X927390Y775230D02*
D03*
X973110D02*
D03*
X1045360D02*
D03*
X999640D02*
D03*
X973360Y644250D02*
D03*
X927640Y644250D02*
D03*
X1045610Y644250D02*
D03*
X999890D02*
D03*
X1117360Y775230D02*
D03*
X1071640D02*
D03*
X1120470Y644250D02*
D03*
X1074750D02*
D03*
D33*
X950250Y840000D02*
D03*
X1022500D02*
D03*
X950500Y709020D02*
D03*
X1022750D02*
D03*
X1094500Y840000D02*
D03*
X1097610Y709020D02*
D03*
D34*
X787000Y772750D02*
D03*
D35*
X815250Y753700D02*
D03*
X815250Y766400D02*
D03*
X815250Y779100D02*
D03*
Y791800D02*
D03*
X758750Y753700D02*
D03*
Y766400D02*
D03*
Y779100D02*
D03*
Y791800D02*
D03*
D36*
X863500Y793250D02*
D03*
X881500D02*
D03*
X797000Y640750D02*
D03*
X815000D02*
D03*
X883000Y683750D02*
D03*
X865000D02*
D03*
X883000Y720250D02*
D03*
X865000D02*
D03*
D37*
X744500Y698000D02*
D03*
X799000D02*
D03*
D38*
X766000Y640750D02*
D03*
X745000D02*
D03*
D39*
X769250Y818500D02*
D03*
X798250D02*
D03*
X860750Y647000D02*
D03*
X889750D02*
D03*
D40*
X736250Y764250D02*
D03*
X736250Y780250D02*
D03*
D41*
X1162750Y854750D02*
D03*
X1164500Y729500D02*
D03*
X1164750Y607250D02*
D03*
D42*
X703750Y604750D02*
D03*
X704250Y855250D02*
D03*
D43*
X879250Y827000D02*
D03*
X863250D02*
D03*
X880750Y759250D02*
D03*
X864750D02*
D03*
D44*
X1061750Y640500D02*
D03*
X1063250Y669500D02*
D03*
X792500Y761750D02*
D03*
X781500D02*
D03*
Y772750D02*
D03*
X792500D02*
D03*
Y783750D02*
D03*
X781500D02*
D03*
M02*
